<svg width="446" height="194" viewBox="0 0 446 194" fill="none" xmlns="http://www.w3.org/2000/svg">
<path fill-rule="evenodd" clip-rule="evenodd" d="M0.171875 165.96V134.432L66.4485 1.4758H111.527L46.9948 129.467H81.6089V79.4246H121.992V129.467H137.287V165.96H121.992V192.658H81.6089V165.96H0.171875ZM164.29 136.578V57.6902C164.29 48.567 165.989 40.4279 169.388 33.2725C172.787 26.1171 177.282 20.0798 182.872 15.1604C188.462 10.2411 194.924 6.48457 202.258 3.89073C209.593 1.2969 217.106 0 224.798 0C232.669 0 240.271 1.2969 247.605 3.89073C254.94 6.48457 261.447 10.2411 267.126 15.1604C272.806 20.0798 277.323 26.1171 280.677 33.2725C284.031 40.4279 285.708 48.567 285.708 57.6902V136.578C285.708 145.701 284.031 153.84 280.677 160.996C277.323 168.151 272.806 174.166 267.126 179.041C261.447 183.915 254.94 187.627 247.605 190.176C240.271 192.725 232.669 194 224.798 194C217.106 194 209.593 192.725 202.258 190.176C194.924 187.627 188.462 183.915 182.872 179.041C177.282 174.166 172.787 168.174 169.388 161.063C165.989 153.952 164.29 145.791 164.29 136.578ZM204.673 136.31C204.673 143.465 206.507 148.787 210.174 152.275C213.841 155.764 218.716 157.508 224.798 157.508C230.88 157.508 235.777 155.764 239.489 152.275C243.2 148.787 245.056 143.465 245.056 136.31V57.6902C245.056 50.5348 243.178 45.2354 239.421 41.7918C235.665 38.3483 230.79 36.6266 224.798 36.6266C218.716 36.6266 213.841 38.3707 210.174 41.8589C206.507 45.3472 204.673 50.6242 204.673 57.6902V136.31ZM308.552 165.96V134.432L374.829 1.4758H419.908L355.375 129.467H389.989V79.4246H430.372V129.467H445.667V165.96H430.372V192.658H389.989V165.96H308.552Z" fill="#C5A17C"/>
</svg>
