<svg width="46" height="46" viewBox="0 0 46 46" fill="none" xmlns="http://www.w3.org/2000/svg">
<circle opacity="0.2" cx="23" cy="23" r="23" fill="#C5A17C"/>
<circle cx="23" cy="23" r="16" fill="white"/>
<path d="M21.7501 32.5478H15.9171C14.7665 32.5467 13.8342 31.6143 13.8331 30.4638V20.7638C13.0163 20.1841 12.762 19.0853 13.2411 18.2058C14.1411 16.5978 15.0591 15.0128 15.9621 13.4938C16.3242 12.9008 16.9712 12.5416 17.6661 12.5477C18.0896 12.552 18.5015 12.6864 18.8461 12.9328L18.8701 12.9478C19.2821 13.1878 23.2621 15.5568 26.4611 17.4598L29.3001 19.1478L29.4301 19.2248C31.6481 20.5358 32.1471 20.8338 32.1751 20.8528C32.9916 21.4309 33.2427 22.5305 32.7581 23.4058C31.8751 24.9828 30.9581 26.5678 30.0371 28.1178C29.6796 28.7044 29.044 29.0641 28.3571 29.0688C28.2225 29.0688 28.0883 29.0537 27.9571 29.0238C27.8411 29.0928 27.2011 29.5038 26.3901 30.0238C24.9471 30.9488 22.9751 32.2138 22.7471 32.3308C22.4394 32.4891 22.0956 32.5639 21.7501 32.5478ZM15.5001 23.5778V30.4638C15.5001 30.6941 15.6867 30.8808 15.9171 30.8808H19.7401C18.2871 28.4278 16.8611 25.9698 15.5001 23.5778ZM16.8581 22.5778C17.2581 23.2648 21.5741 30.7098 21.6101 30.7598C21.6669 30.8336 21.7549 30.8769 21.8481 30.8768C21.8972 30.8768 21.9456 30.8648 21.9891 30.8418C22.1241 30.7658 26.1831 28.1578 26.2231 28.1318C25.9091 27.9468 23.6371 26.5928 21.2311 25.1598L16.8381 22.5478L16.8451 22.5588L16.8551 22.5758V22.5818L16.8581 22.5778ZM17.3321 14.4478C16.5241 15.7478 14.7161 18.9758 14.6921 19.0348C14.6328 19.1764 14.6854 19.3401 14.8161 19.4208C14.9491 19.4998 28.1701 27.3768 28.2961 27.3968C28.312 27.3979 28.3281 27.3979 28.3441 27.3968C28.4527 27.3971 28.5536 27.3406 28.6101 27.2478C29.4241 25.8808 31.2991 22.5908 31.3041 22.5808C31.362 22.4385 31.3092 22.2753 31.1791 22.1938C31.0521 22.1178 17.8561 14.2758 17.7711 14.2388C17.7324 14.2225 17.691 14.214 17.6491 14.2138C17.5437 14.2143 17.4457 14.2677 17.3881 14.3558L17.3811 14.3678L17.3731 14.3798L17.3611 14.3998V14.4048L17.3461 14.4288L17.3311 14.4478H17.3321ZM18.6851 19.9378C17.7656 19.9372 17.0204 19.1919 17.0201 18.2724C17.0197 17.353 17.7643 16.6071 18.6837 16.6058C19.6032 16.6045 20.3498 17.3483 20.3521 18.2678C20.351 19.188 19.6053 19.9337 18.6851 19.9348V19.9378Z" fill="#2E3A59"/>
</svg>
