<svg width="46" height="46" viewBox="0 0 46 46" fill="none" xmlns="http://www.w3.org/2000/svg">
<circle opacity="0.2" cx="23" cy="23" r="23" fill="#C5A17C"/>
<circle cx="23" cy="23" r="16" fill="white"/>
<path d="M27 32.5474H15C13.8954 32.5474 13 31.6519 13 30.5474V18.5474H15V30.5474H27V32.5474ZM31 28.5474H19C17.8954 28.5474 17 27.6519 17 26.5474V14.5474C17 13.4428 17.8954 12.5474 19 12.5474H31C32.1046 12.5474 33 13.4428 33 14.5474V26.5474C33 27.6519 32.1046 28.5474 31 28.5474ZM19 14.5474V26.5474H31V14.5474H19ZM24 24.1084L20.293 20.4004L21.707 18.9864L24 21.2804L28.293 16.9874L29.707 18.4014L24 24.1074V24.1084Z" fill="#2E3A59"/>
</svg>
