<svg width="46" height="46" viewBox="0 0 46 46" fill="none" xmlns="http://www.w3.org/2000/svg">
<circle opacity="0.2" cx="23" cy="23" r="23" fill="#C5A17C"/>
<circle cx="23" cy="23" r="16" fill="white"/>
<path d="M22.8957 31.968C22.365 31.9696 21.8557 31.7585 21.4817 31.382L13.6447 23.547C13.2311 23.1349 13.0191 22.5621 13.0647 21.98L13.5647 15.414C13.6361 14.4257 14.4241 13.6407 15.4127 13.573L21.9787 13.073C22.0307 13.062 22.0817 13.062 22.1337 13.062C22.6633 13.0614 23.1713 13.2723 23.5447 13.648L31.3817 21.482C31.7569 21.8571 31.9677 22.3659 31.9677 22.8965C31.9677 23.4271 31.7569 23.9359 31.3817 24.311L24.3097 31.382C23.9355 31.7583 23.4263 31.9693 22.8957 31.968ZM18.6527 16.654C17.7475 16.6543 16.9553 17.2625 16.7213 18.1368C16.4872 19.0112 16.8696 19.9338 17.6536 20.3863C18.4376 20.8387 19.4277 20.7082 20.0677 20.068L20.0747 20.062L20.0817 20.055L20.0737 20.062C20.6421 19.4886 20.81 18.6296 20.4992 17.8843C20.1885 17.1391 19.4601 16.6538 18.6527 16.654Z" fill="#2E3A59"/>
</svg>
