<svg width="46" height="46" viewBox="0 0 46 46" fill="none" xmlns="http://www.w3.org/2000/svg">
<circle opacity="0.2" cx="23" cy="23" r="23" fill="#C5A17C"/>
<circle cx="23" cy="23" r="16" fill="white"/>
<path d="M23.001 33C18.0576 32.9349 14.0661 28.9433 14.001 24C14.0661 19.0567 18.0576 15.0652 23.001 15C27.9443 15.0652 31.9358 19.0567 32.001 24C31.9358 28.9433 27.9443 32.9349 23.001 33ZM23.001 17C19.1561 17.0506 16.0516 20.1552 16.001 24C16.0516 27.8448 19.1561 30.9494 23.001 31C26.8458 30.9494 29.9504 27.8448 30.001 24C29.9504 20.1552 26.8458 17.0506 23.001 17ZM24.001 29H22.001V25H18.001V23H22.001V19H24.001V23H28.001V25H24.001V29ZM31.293 17.708L28.284 14.708L29.693 13.291L32.703 16.291L31.293 17.707V17.708ZM14.71 17.708L13.293 16.291L16.284 13.291L17.699 14.707L14.71 17.707V17.708Z" fill="#2E3A59"/>
</svg>
