<svg width="46" height="46" viewBox="0 0 46 46" fill="none" xmlns="http://www.w3.org/2000/svg">
<circle opacity="0.2" cx="23" cy="23" r="23" fill="#C5A17C"/>
<circle cx="23" cy="23" r="16" fill="white"/>
<path d="M16.9992 32.5474C15.3134 32.5469 13.8087 31.4896 13.2371 29.9036C12.6655 28.3176 13.1497 26.5434 14.4477 25.4676C15.7457 24.3918 17.5789 24.2453 19.0312 25.1014L25.5532 18.5794C24.5329 16.8459 24.9605 14.6242 26.5514 13.3932C28.1423 12.1623 30.4002 12.3062 31.822 13.729C33.2438 15.1518 33.3861 17.4098 32.154 18.9998C30.922 20.5898 28.7 21.0159 26.9672 19.9944L20.4462 26.5154C21.1757 27.7522 21.1862 29.2852 20.4737 30.532C19.7613 31.7787 18.4352 32.5479 16.9992 32.5474ZM16.9992 26.5474C15.8947 26.5474 14.9992 27.4428 14.9992 28.5474C14.9992 29.6519 15.8947 30.5474 16.9992 30.5474C18.1038 30.5474 18.9992 29.6519 18.9992 28.5474C18.9992 27.4428 18.1038 26.5474 16.9992 26.5474ZM28.9992 14.5474C27.9066 14.5485 27.0171 15.4262 27.0015 16.5187C26.9858 17.6112 27.8498 18.5141 28.9419 18.5465C30.034 18.5789 30.9501 17.7289 30.9992 16.6374V17.0374V16.5474C30.9992 15.4428 30.1038 14.5474 28.9992 14.5474Z" fill="#2E3A59"/>
</svg>
