<svg width="46" height="46" viewBox="0 0 46 46" fill="none" xmlns="http://www.w3.org/2000/svg">
<circle opacity="0.2" cx="23" cy="23" r="23" fill="#C5A17C"/>
<circle cx="23" cy="23" r="16" fill="white"/>
<path d="M30 33H16C14.8954 33 14 32.1046 14 31V17C14 15.8954 14.8954 15 16 15H18V13H20V15H26V13H28V15H30C31.1046 15 32 15.8954 32 17V31C32 32.1046 31.1046 33 30 33ZM16 21V31H30V21H16ZM16 17V19H30V17H16ZM22 29.414L18.293 25.707L19.707 24.293L22 26.586L26.293 22.293L27.707 23.707L22 29.413V29.414Z" fill="#2E3A59"/>
</svg>
