<svg width="46" height="46" viewBox="0 0 46 46" fill="none" xmlns="http://www.w3.org/2000/svg">
<circle opacity="0.2" cx="23" cy="23" r="23" fill="#C5A17C"/>
<circle cx="23" cy="23" r="16" fill="white"/>
<path d="M24.66 15.3C24.5649 14.8343 24.1553 14.5 23.68 14.5H16.5C15.9477 14.5 15.5 14.9477 15.5 15.5V30.5C15.5 31.0523 15.9477 31.5 16.5 31.5C17.0523 31.5 17.5 31.0523 17.5 30.5V24.5H23.1L23.34 25.7C23.4307 26.1683 23.8431 26.5048 24.32 26.5H29.5C30.0523 26.5 30.5 26.0523 30.5 25.5V17.5C30.5 16.9477 30.0523 16.5 29.5 16.5H24.9L24.66 15.3Z" fill="#2E3A59"/>
</svg>
