<svg width="36" height="36" viewBox="0 0 36 36" fill="none" xmlns="http://www.w3.org/2000/svg">
<circle cx="18" cy="18" r="16.5" fill="white" stroke="#C5A17C" stroke-width="3"/>
<path d="M14.8134 10.3173L14.8134 10.3173C15.2333 9.89424 15.9145 9.89424 16.3344 10.3173L16.3348 10.3177L22.89 16.9382L22.8902 16.9385C23.3068 17.3597 23.3078 18.0403 22.8898 18.4616C22.8897 18.4617 22.8897 18.4618 22.8896 18.4619L16.335 25.0817C16.335 25.0818 16.3349 25.0819 16.3348 25.082C15.9139 25.5074 15.2324 25.5045 14.8134 25.0824L14.8134 10.3173ZM14.8134 10.3173L14.8121 10.3186M14.8134 10.3173L14.8121 10.3186M14.8121 10.3186C14.3977 10.7392 14.3948 11.4163 14.8103 11.8382L20.4526 17.701M14.8121 10.3186L20.4526 17.701M20.4526 17.701L14.8098 23.562L20.4526 17.701Z" fill="#C5A17C" stroke="#C5A17C"/>
</svg>
