<svg width="18" height="18" viewBox="0 0 18 18" fill="none" xmlns="http://www.w3.org/2000/svg">
<path fill-rule="evenodd" clip-rule="evenodd" d="M0.965 17.75C0.782 17.75 0.6 17.68 0.46 17.54C0.18 17.264 0.18 16.81 0.46 16.53L16.531 0.46C16.811 0.18 17.264 0.18 17.541 0.46C17.821 0.74 17.821 1.19 17.541 1.47L1.471 17.54C1.331 17.68 1.148 17.75 0.965 17.75Z" fill="#2F2F42"/>
<path fill-rule="evenodd" clip-rule="evenodd" d="M17.036 17.75C16.853 17.75 16.67 17.68 16.53 17.54L0.46 1.47C0.18 1.19 0.18 0.74 0.46 0.46C0.737 0.18 1.19 0.18 1.47 0.46L17.54 16.53C17.82 16.81 17.82 17.264 17.54 17.54C17.4 17.68 17.22 17.75 17.036 17.75Z" fill="#2F2F42"/>
</svg>
