<svg width="56" height="60" viewBox="0 0 56 60" fill="none" xmlns="http://www.w3.org/2000/svg">
<path d="M23 14H25V16H23V14Z" fill="#C29952"/>
<path d="M31 14H33V16H31V14Z" fill="#C29952"/>
<path d="M28 23C29.6823 23 31 21.9019 31 20.5H29C29 20.6762 28.6204 21 28 21C27.3796 21 27 20.6762 27 20.5H25C25 21.9019 26.3178 23 28 23Z" fill="#C29952"/>
<path d="M53.5105 43.0962L49.7072 39.2929L48.2929 40.7071L52.0963 44.5104C52.7017 45.1126 53.1817 45.8289 53.5085 46.6178C53.8353 47.4068 54.0024 48.2527 54 49.1066V55.25C53.9992 55.9791 53.7092 56.6781 53.1937 57.1936C52.6781 57.7092 51.9791 57.9992 51.25 58H49V53H51V51H47V33C47 32.7348 46.8947 32.4804 46.7071 32.2929C46.5196 32.1054 46.2652 32 46 32H40.577L34.8734 28.3704L34.0457 25.0595L34.3957 24.8821C35.1807 24.4876 35.8402 23.8821 36.3002 23.1335C36.7603 22.385 37.0026 21.5231 37 20.6445V20H37.5C38.428 19.9989 39.3176 19.6299 39.9737 18.9737C40.6299 18.3176 40.999 17.4279 41 16.5V15.5C40.999 14.5852 40.6402 13.707 40.0003 13.0532C39.3604 12.3994 38.4903 12.0217 37.5757 12.0009C37.8546 11.4877 38.0005 10.9128 38 10.3287V7.25C37.9978 5.32785 37.2333 3.48505 35.8741 2.12589C34.515 0.766722 32.6722 0.00218355 30.75 0H25.25C23.3279 0.00218355 21.4851 0.766722 20.1259 2.12589C18.7668 3.48505 18.0022 5.32785 18 7.25V10.3287C17.9998 10.9129 18.1459 11.4878 18.425 12.0009C17.5103 12.0215 16.64 12.3991 16 13.053C15.36 13.7068 15.0011 14.5851 15 15.5V16.5C15.0011 17.4279 15.3702 18.3176 16.0263 18.9737C16.6825 19.6299 17.5721 19.9989 18.5 20H19V20.6824C18.997 21.5651 19.2414 22.4311 19.7055 23.182C20.1696 23.9329 20.8349 24.5388 21.6258 24.9309L21.9465 25.0912L21.1267 28.3704L15.423 32H10C9.73481 32 9.48046 32.1054 9.29292 32.2929C9.10539 32.4804 9.00003 32.7348 9.00003 33V36.5858L5.29291 40.2929L6.70716 41.7071L9.00003 39.4142V51H5.00003V53H7.00003V58H4.75003C4.02094 57.9992 3.32195 57.7092 2.8064 57.1936C2.29086 56.6781 2.00086 55.9791 2.00003 55.25V49.1066C1.99771 48.2527 2.16476 47.4068 2.49152 46.6178C2.81827 45.8289 3.29824 45.1126 3.90366 44.5104L4.70703 43.7071L3.29303 42.2929L2.48953 43.0962C1.69777 43.8837 1.07007 44.8204 0.642744 45.8521C0.215421 46.8838 -0.00303154 47.9899 3.17759e-05 49.1066V55.25C0.00145441 56.5093 0.502356 57.7167 1.39285 58.6072C2.28334 59.4977 3.49069 59.9986 4.75003 60H51.25C52.5094 59.9986 53.7167 59.4977 54.6072 58.6072C55.4977 57.7167 55.9986 56.5093 56 55.25V49.1066C56.0031 47.9899 55.7846 46.8838 55.3573 45.8521C54.93 44.8204 54.3023 43.8837 53.5105 43.0962ZM25 34H31V41H25V34ZM32.4143 32L34.1399 30.275L36.8517 32H32.4143ZM20.7923 11.6512C20.5513 11.525 20.3499 11.3348 20.2101 11.1014C20.0703 10.8681 19.9976 10.6007 20 10.3287V9.58838L23.6292 7.57213C24.9646 6.82448 26.4695 6.4319 28 6.4319C29.5305 6.4319 31.0354 6.82448 32.3709 7.57213L36 9.58838V10.3287C36 10.6002 35.9263 10.8666 35.7868 11.0995C35.6473 11.3324 35.4472 11.5231 35.2078 11.6512C34.9684 11.7793 34.6988 11.84 34.4276 11.8269C34.1565 11.8138 33.8939 11.7273 33.668 11.5767L31.3283 10.017C30.3435 9.35787 29.1851 9.006 28 9.006C26.815 9.006 25.6566 9.35787 24.6718 10.017L22.332 11.5767C22.1071 11.7296 21.8443 11.8174 21.5726 11.8306C21.301 11.8437 21.031 11.7817 20.7923 11.6512ZM39 15.5V16.5C38.9996 16.8977 38.8414 17.279 38.5602 17.5602C38.279 17.8414 37.8977 17.9996 37.5 18H37V14H37.5C37.8977 14.0004 38.279 14.1586 38.5602 14.4398C38.8414 14.721 38.9996 15.1023 39 15.5ZM25.25 2H30.75C32.1419 2.00155 33.4764 2.55518 34.4606 3.53941C35.4449 4.52364 35.9985 5.85809 36 7.25V7.3L33.342 5.82387C31.7099 4.91008 29.8706 4.43024 28 4.43024C26.1295 4.43024 24.2902 4.91008 22.658 5.82387L20 7.3V7.25C20.0016 5.85809 20.5552 4.52364 21.5394 3.53941C22.5237 2.55518 23.8581 2.00155 25.25 2ZM18.5 18C18.1023 17.9996 17.7211 17.8414 17.4398 17.5602C17.1586 17.279 17.0005 16.8977 17 16.5V15.5C17.0005 15.1023 17.1586 14.721 17.4398 14.4398C17.7211 14.1586 18.1023 14.0004 18.5 14H19V18H18.5ZM21 20.6824V13.7935C21.8542 13.9173 22.7239 13.7205 23.4414 13.2409L25.7812 11.681C26.4377 11.2417 27.2099 11.0072 27.9999 11.0072C28.7899 11.0072 29.5621 11.2417 30.2187 11.681L32.5584 13.2409C33.2761 13.7203 34.1459 13.9171 35 13.7934V20.6445C35.0015 21.1532 34.8613 21.6522 34.5949 22.0855C34.3286 22.5189 33.9468 22.8695 33.4923 23.0979L28.6707 25.5395C28.4616 25.6448 28.2309 25.7 27.9968 25.7006C27.7627 25.7012 27.5317 25.6472 27.3222 25.543L22.5203 23.1421C22.0624 22.9151 21.6772 22.5643 21.4085 22.1296C21.1398 21.6948 20.9983 21.1935 21 20.6824ZM26.4277 27.3324C26.9167 27.5756 27.4557 27.7015 28.0019 27.7001C28.548 27.6987 29.0864 27.5701 29.5742 27.3244L32.2158 25.9869L32.8927 28.694L29.5858 32H26.4143L23.1074 28.6933L23.7789 26.0075L26.4277 27.3324ZM21.8602 30.2749L23.5858 32H19.1483L21.8602 30.2749ZM11 34H23V42C23 42.2652 23.1054 42.5196 23.2929 42.7071C23.4805 42.8946 23.7348 43 24 43H32C32.2652 43 32.5196 42.8946 32.7071 42.7071C32.8947 42.5196 33 42.2652 33 42V34H45V51H44C42.0522 51.0026 40.172 51.7147 38.7111 53.003C37.2502 54.2914 36.3087 56.0678 36.0625 58H33V53C33 52.7348 32.8947 52.4804 32.7071 52.2929C32.5196 52.1054 32.2652 52 32 52H24C23.7348 52 23.4805 52.1054 23.2929 52.2929C23.1054 52.4804 23 52.7348 23 53V58H19.9375C19.6914 56.0678 18.7498 54.2914 17.2889 53.003C15.828 51.7147 13.9479 51.0026 12 51H11V34ZM9.00003 58V53H12C13.4175 53.0018 14.7887 53.5046 15.8714 54.4195C16.9541 55.3345 17.6785 56.6027 17.9167 58H9.00003ZM25 58V54H31V58H25ZM47 58H38.0834C38.3216 56.6027 39.046 55.3345 40.1287 54.4195C41.2113 53.5046 42.5825 53.0018 44 53H47V58Z" fill="#C29952"/>
<path d="M13 36H15V38H13V36Z" fill="#C29952"/>
<path d="M17 36H21V38H17V36Z" fill="#C29952"/>
<path d="M13 40H21V42H13V40Z" fill="#C29952"/>
<path d="M36 43H39.5C40.4279 42.9989 41.3176 42.6299 41.9737 41.9737C42.6299 41.3176 42.9989 40.4279 43 39.5V37C43 36.7348 42.8946 36.4804 42.7071 36.2929C42.5196 36.1054 42.2652 36 42 36H38.5C37.5721 36.0011 36.6824 36.3701 36.0263 37.0263C35.3701 37.6824 35.0011 38.5721 35 39.5V42C35 42.2652 35.1054 42.5196 35.2929 42.7071C35.4804 42.8946 35.7348 43 36 43ZM37 39.5C37.0004 39.1023 37.1586 38.721 37.4398 38.4398C37.721 38.1586 38.1023 38.0004 38.5 38H41V39.5C40.9996 39.8977 40.8414 40.279 40.5602 40.5602C40.279 40.8414 39.8977 40.9996 39.5 41H37V39.5Z" fill="#C29952"/>
</svg>
