<svg width="84" height="60" viewBox="0 0 84 60" fill="none" xmlns="http://www.w3.org/2000/svg">
<path d="M19.5361 43.2559C14.9189 43.2559 11.1641 47.0107 11.1641 51.6279C11.1641 56.2452 14.9189 60 19.5361 60C24.1534 60 27.9082 56.2452 27.9082 51.6279C27.9082 47.0107 24.1532 43.2559 19.5361 43.2559ZM19.5361 57.2093C16.4579 57.2093 13.9548 54.706 13.9548 51.6279C13.9548 48.5497 16.4581 46.0466 19.5361 46.0466C22.6142 46.0466 25.1175 48.5499 25.1175 51.6279C25.1175 54.706 22.6142 57.2093 19.5361 57.2093Z" fill="#C29952"/>
<path d="M66.9776 43.2559C62.3603 43.2559 58.6055 47.0107 58.6055 51.6279C58.6055 56.2452 62.3603 60 66.9776 60C71.5948 60 75.3496 56.2452 75.3496 51.6279C75.3496 47.0107 71.5948 43.2559 66.9776 43.2559ZM66.9776 57.2093C63.8993 57.2093 61.3962 54.706 61.3962 51.6279C61.3962 48.5497 63.8995 46.0466 66.9776 46.0466C70.0558 46.0466 72.5589 48.5499 72.5589 51.6279C72.5589 54.706 70.0558 57.2093 66.9776 57.2093Z" fill="#C29952"/>
<path d="M83.4991 35.5243L70.941 15.9894C70.6843 15.5902 70.242 15.3489 69.7674 15.3489H54.4187C53.6471 15.3489 53.0234 15.974 53.0234 16.7442V51.6278C53.0234 52.3994 53.6471 53.0231 54.4187 53.0231H60.0001V50.2323H55.814V18.1396H69.0056L80.9303 36.6894V50.2327H73.9535V53.0233H82.3256C83.0972 53.0233 83.7209 52.3996 83.7209 51.628V36.2791C83.721 36.0126 83.6443 35.7488 83.4991 35.5243Z" fill="#C29952"/>
<path d="M61.3961 33.4883V23.7209H72.5589V20.9302H60.0008C59.2291 20.9302 58.6055 21.5553 58.6055 22.3255V34.8836C58.6055 35.6552 59.2291 36.2789 60.0008 36.2789H80.931V33.4881H61.3961V33.4883Z" fill="#C29952"/>
<path d="M54.4185 5.58154H1.39529C0.625127 5.58154 0 6.20667 0 6.97684V51.628C0 52.3996 0.625127 53.0233 1.39529 53.0233H12.5581V50.2326H2.79075V8.37213H53.0233V50.2326H26.5115V53.0233H54.4185C55.1902 53.0233 55.8138 52.3996 55.8138 51.628V6.97684C55.8138 6.20667 55.1902 5.58154 54.4185 5.58154Z" fill="#C29952"/>
<path d="M9.76662 44.6512H1.39453V47.442H9.76662V44.6512Z" fill="#C29952"/>
<path d="M53.0217 44.6512H29.3008V47.442H53.0217V44.6512Z" fill="#C29952"/>
<path d="M82.3235 44.6512H76.7422V47.442H82.3235V44.6512Z" fill="#C29952"/>
<path d="M54.4192 11.1628H5.58203V13.9536H54.4192V11.1628Z" fill="#C29952"/>
<path d="M20.9314 50.2324H18.1406V53.0232H20.9314V50.2324Z" fill="#C29952"/>
<path d="M68.3728 50.2324H65.582V53.0232H68.3728V50.2324Z" fill="#C29952"/>
<path d="M25.117 0H5.58203V2.79075H25.117V0Z" fill="#C29952"/>
<path d="M2.79075 0H0V2.79075H2.79075V0Z" fill="#C29952"/>
</svg>
