<svg width="22" height="22" viewBox="0 0 22 22" fill="none" xmlns="http://www.w3.org/2000/svg">
<path fill-rule="evenodd" clip-rule="evenodd" d="M8.72901 17.4598C10.6151 17.4598 12.3616 16.8615 13.7889 15.8444L19.5241 21.5802C20.0845 22.1407 20.9947 22.1392 21.5537 21.58L21.5778 21.556C22.1383 20.9954 22.143 20.0912 21.578 19.5262L15.8428 13.7903C16.8598 12.3628 17.458 10.6162 17.458 8.72991C17.458 3.90851 13.5499 0 8.72901 0C3.90811 0 0 3.90851 0 8.72991C0 13.5513 3.90811 17.4598 8.72901 17.4598ZM15.4049 8.72964C15.4049 12.4166 12.4164 15.4055 8.72981 15.4055C5.04324 15.4055 2.05469 12.4166 2.05469 8.72964C2.05469 5.0427 5.04324 2.05383 8.72981 2.05383C12.4164 2.05383 15.4049 5.0427 15.4049 8.72964Z" fill="#C5A17C"/>
</svg>
