<svg width="24" height="32" viewBox="0 0 24 32" fill="none" xmlns="http://www.w3.org/2000/svg">
<g clip-path="url(#clip0_892_9)">
<path d="M23.6895 14.445L22.1265 12.306C22.0772 12.239 22.0501 12.1582 22.0488 12.0751C22.0476 11.9919 22.0723 11.9104 22.1195 11.842L23.6505 9.68297C23.683 9.63676 23.7053 9.5842 23.716 9.52874C23.7268 9.47329 23.7256 9.41619 23.7127 9.36121C23.6997 9.30622 23.6753 9.25461 23.641 9.20975C23.6066 9.1649 23.5632 9.12782 23.5135 9.10097L21.1805 7.85097C21.1068 7.81166 21.0476 7.74977 21.0116 7.67437C20.9756 7.59896 20.9647 7.51401 20.9805 7.43197L21.4185 4.82197C21.4276 4.76607 21.4247 4.70887 21.4101 4.65416C21.3954 4.59945 21.3693 4.54848 21.3335 4.50461C21.2977 4.46075 21.2529 4.42499 21.2022 4.39971C21.1516 4.37443 21.0961 4.3602 21.0395 4.35797L18.3905 4.24697C18.3071 4.24318 18.2269 4.21338 18.1613 4.16173C18.0956 4.11007 18.0478 4.03917 18.0245 3.95897L17.2915 1.40797C17.2756 1.3535 17.2483 1.30304 17.2114 1.25993C17.1745 1.21682 17.1289 1.18206 17.0775 1.15794C17.0262 1.13382 16.9703 1.12091 16.9135 1.12005C16.8568 1.11919 16.8006 1.13041 16.7485 1.15297L14.3155 2.19997C14.238 2.23154 14.1527 2.23889 14.071 2.22104C13.9892 2.20318 13.9148 2.16097 13.8575 2.09997L12.0905 0.131966C12.0525 0.0898374 12.0059 0.0562842 11.9539 0.033536C11.9019 0.0107877 11.8457 -0.000634879 11.7889 2.72223e-05C11.7322 0.000689324 11.6762 0.0134209 11.6248 0.0373761C11.5733 0.0613313 11.5275 0.0959616 11.4905 0.138966L9.75049 2.13897C9.6955 2.20112 9.62226 2.24426 9.54124 2.26223C9.46022 2.28019 9.3756 2.27205 9.29949 2.23897L6.8515 1.23097C6.79934 1.20971 6.74329 1.19971 6.687 1.20161C6.63071 1.20351 6.57546 1.21728 6.52486 1.24202C6.47426 1.26675 6.42945 1.30189 6.39337 1.34513C6.35729 1.38838 6.33076 1.43875 6.31549 1.49297L5.6155 4.04397C5.5928 4.12393 5.54611 4.195 5.48173 4.24758C5.41735 4.30016 5.33838 4.33171 5.2555 4.33797L2.61249 4.48797C2.55571 4.49089 2.50021 4.50588 2.44969 4.53194C2.39916 4.558 2.35476 4.59454 2.31947 4.63911C2.28417 4.68368 2.25878 4.73526 2.24499 4.79041C2.2312 4.84557 2.22932 4.90303 2.23949 4.95897L2.71749 7.55897C2.73189 7.64093 2.72035 7.72535 2.6845 7.80045C2.64865 7.87556 2.59027 7.93761 2.51749 7.97797L0.205492 9.26397C0.156285 9.29135 0.113412 9.32881 0.0796834 9.37391C0.0459543 9.41901 0.0221298 9.47071 0.00976378 9.52565C-0.00260224 9.58059 -0.00322942 9.63752 0.0079251 9.69272C0.0190796 9.74792 0.0417626 9.80014 0.0744916 9.84597L1.63749 11.985C1.68675 12.052 1.7139 12.1327 1.71516 12.2158C1.71641 12.299 1.69171 12.3805 1.6445 12.449L0.113493 14.608C0.0809996 14.6542 0.0586571 14.7067 0.0479413 14.7622C0.0372254 14.8176 0.0383787 14.8747 0.0513211 14.9297C0.0642635 14.9847 0.0887044 15.0363 0.123034 15.0812C0.157363 15.126 0.200799 15.1631 0.25049 15.19L2.58549 16.439C2.65922 16.4783 2.71842 16.5402 2.75441 16.6156C2.7904 16.691 2.8013 16.7759 2.78549 16.858L2.34749 19.468C2.33838 19.5239 2.34125 19.5811 2.35591 19.6358C2.37056 19.6905 2.39667 19.7415 2.4325 19.7853C2.46833 19.8292 2.51306 19.8649 2.56375 19.8902C2.61443 19.9155 2.6699 19.9297 2.7265 19.932L5.36949 20.043C5.45293 20.0467 5.53309 20.0766 5.59873 20.1282C5.66436 20.1799 5.71219 20.2508 5.73549 20.331L6.47449 22.876C6.49038 22.9304 6.51768 22.9809 6.55457 23.024C6.59146 23.0671 6.63709 23.1019 6.68845 23.126C6.7398 23.1501 6.7957 23.163 6.85243 23.1639C6.90916 23.1647 6.96543 23.1535 7.01749 23.131L9.45049 22.084C9.528 22.0524 9.61325 22.045 9.69501 22.0629C9.77677 22.0807 9.85121 22.123 9.90849 22.184L11.6805 24.152C11.7185 24.1941 11.7651 24.2276 11.8171 24.2504C11.8691 24.2731 11.9253 24.2846 11.9821 24.2839C12.0388 24.2832 12.0948 24.2705 12.1462 24.2466C12.1977 24.2226 12.2435 24.188 12.2805 24.145L14.0205 22.145C14.0755 22.0828 14.1487 22.0397 14.2297 22.0217C14.3108 22.0037 14.3954 22.0119 14.4715 22.045L16.9185 23.052C16.9706 23.0732 17.0267 23.0832 17.083 23.0813C17.1393 23.0794 17.1945 23.0656 17.2451 23.0409C17.2957 23.0162 17.3405 22.981 17.3766 22.9378C17.4127 22.8946 17.4392 22.8442 17.4545 22.79L18.1545 20.239C18.1772 20.159 18.2239 20.0879 18.2883 20.0354C18.3526 19.9828 18.4316 19.9512 18.5145 19.945L21.1575 19.795C21.2143 19.792 21.2698 19.7771 21.3203 19.751C21.3708 19.7249 21.4152 19.6884 21.4505 19.6438C21.4858 19.5993 21.5112 19.5477 21.525 19.4925C21.5388 19.4374 21.5407 19.3799 21.5305 19.324L21.0525 16.724C21.0381 16.642 21.0496 16.5576 21.0855 16.4825C21.1213 16.4074 21.1797 16.3453 21.2525 16.305L23.5685 15.023C23.6182 14.9964 23.6614 14.9594 23.6952 14.9143C23.729 14.8693 23.7525 14.8173 23.764 14.7622C23.7755 14.7071 23.7748 14.6501 23.762 14.5953C23.7491 14.5405 23.7244 14.4892 23.6895 14.445ZM11.8895 19.332C10.4688 19.332 9.08007 18.9107 7.89883 18.1214C6.71759 17.3321 5.79693 16.2103 5.25327 14.8978C4.7096 13.5853 4.56736 12.141 4.84451 10.7476C5.12167 9.35427 5.80578 8.07438 6.81034 7.06982C7.8149 6.06526 9.0948 5.38114 10.4882 5.10399C11.8815 4.82683 13.3258 4.96908 14.6383 5.51274C15.9508 6.0564 17.0727 6.97707 17.8619 8.1583C18.6512 9.33954 19.0725 10.7283 19.0725 12.149C19.0693 14.0531 18.3114 15.8784 16.9647 17.2246C15.6181 18.5709 13.7926 19.3283 11.8885 19.331L11.8895 19.332Z" fill="#C6A179"/>
<path d="M18.3571 23.975C18.1639 24.1704 17.9337 24.3255 17.68 24.4311C17.4262 24.5366 17.154 24.5907 16.8792 24.59C16.6762 24.5887 16.4744 24.5602 16.2791 24.505L14.5912 23.995L13.2912 25.186C13.2452 25.225 13.2062 25.265 13.1602 25.297L15.2531 31.786C15.2705 31.8367 15.301 31.8819 15.3417 31.9168C15.3824 31.9517 15.4317 31.9751 15.4845 31.9845C15.5373 31.9939 15.5916 31.9889 15.6419 31.9702C15.6921 31.9515 15.7364 31.9196 15.7701 31.878L17.2942 29.922C17.3304 29.8757 17.3798 29.8415 17.4358 29.8236C17.4918 29.8058 17.5518 29.8052 17.6082 29.822L19.9832 30.515C20.0345 30.5288 20.0886 30.5286 20.1399 30.5146C20.1912 30.5007 20.2378 30.4733 20.2751 30.4353C20.3123 30.3974 20.3388 30.3502 20.3518 30.2987C20.3648 30.2471 20.3639 30.193 20.3492 30.142L18.3571 23.975Z" fill="#C6A179"/>
<path d="M9.18013 23.9959L7.49212 24.506C7.29745 24.5639 7.09524 24.5925 6.89213 24.5909C6.61738 24.591 6.34535 24.5366 6.09169 24.4311C5.83803 24.3255 5.60776 24.1709 5.41413 23.976L3.41413 30.145C3.39937 30.196 3.39846 30.2501 3.41147 30.3017C3.42449 30.3532 3.45097 30.4004 3.48821 30.4383C3.52545 30.4763 3.5721 30.5036 3.6234 30.5176C3.67469 30.5316 3.72878 30.5317 3.78013 30.5179L6.15513 29.825C6.21142 29.8076 6.27166 29.8079 6.32778 29.8258C6.3839 29.8437 6.43322 29.8783 6.46913 29.925L7.99312 31.881C8.02688 31.9226 8.07118 31.9544 8.12141 31.9732C8.17165 31.9919 8.22598 31.9968 8.27876 31.9874C8.33154 31.978 8.38084 31.9547 8.42153 31.9198C8.46222 31.8849 8.49282 31.8397 8.51013 31.7889L10.6031 25.3C10.5565 25.2665 10.5127 25.2294 10.4721 25.189L9.18013 23.9959Z" fill="#C6A179"/>
<path d="M16.1448 10.362L13.4367 10.162L12.4168 7.64998C12.3739 7.54551 12.301 7.45614 12.2073 7.39324C12.1135 7.33034 12.0032 7.29675 11.8903 7.29675C11.7774 7.29675 11.667 7.33034 11.5733 7.39324C11.4795 7.45614 11.4066 7.54551 11.3637 7.64998L10.3437 10.162L7.63575 10.362C7.52337 10.3704 7.41602 10.4121 7.32733 10.4816C7.23863 10.5511 7.17258 10.6454 7.13755 10.7525C7.10253 10.8597 7.1001 10.9748 7.13058 11.0833C7.16106 11.1918 7.22307 11.2888 7.30876 11.362L9.38275 13.115L8.73475 15.751C8.70727 15.8606 8.71312 15.976 8.75158 16.0823C8.79004 16.1886 8.85935 16.281 8.95063 16.3477C9.04192 16.4144 9.15102 16.4523 9.26399 16.4567C9.37695 16.461 9.48865 16.4315 9.58476 16.372L11.8847 14.939L14.1847 16.372C14.2809 16.4315 14.3926 16.461 14.5055 16.4567C14.6185 16.4523 14.7276 16.4144 14.8189 16.3477C14.9102 16.281 14.9795 16.1886 15.0179 16.0823C15.0564 15.976 15.0622 15.8606 15.0348 15.751L14.3867 13.115L16.4607 11.362C16.5474 11.2901 16.6108 11.1941 16.6426 11.0861C16.6744 10.978 16.6732 10.863 16.6393 10.7556C16.6054 10.6483 16.5402 10.5535 16.4521 10.4833C16.364 10.4132 16.257 10.371 16.1448 10.362Z" fill="#C6A179"/>
</g>
<defs>
<clipPath id="clip0_892_9">
<rect width="23.768" height="32" fill="white"/>
</clipPath>
</defs>
</svg>
