<svg width="30" height="30" viewBox="0 0 30 30" fill="none" xmlns="http://www.w3.org/2000/svg">
<path d="M15 0C23.2843 0 30 6.71573 30 15C30 23.2843 23.2843 30 15 30C6.71573 30 0 23.2843 0 15C0 6.71573 6.71573 0 15 0Z" fill="#7F4DA0"/>
<path fill-rule="evenodd" clip-rule="evenodd" d="M18.997 13.0991C18.9241 12.5064 18.7419 12.041 18.4184 11.6288C17.9983 11.098 17.4615 10.7801 16.6667 10.5916C16.1487 10.4659 15.9394 10.4803 15.7521 10.6514C15.5776 10.8118 15.5435 11.1332 15.6769 11.3413C15.7706 11.4923 15.8788 11.5465 16.1797 11.6055C16.5804 11.6792 16.8573 11.7749 17.1092 11.919C17.6439 12.2277 17.8928 12.7108 17.9195 13.4928C17.932 13.8601 17.9637 13.973 18.092 14.1032C18.3297 14.3413 18.7527 14.295 18.9322 14.0101C18.9981 13.9027 19.0081 13.8559 19.015 13.6066C19.0196 13.4522 19.013 13.2224 18.997 13.0991Z" fill="white"/>
<path fill-rule="evenodd" clip-rule="evenodd" d="M21.0913 13.7674C20.9857 11.9516 20.2754 10.4906 19.0043 9.46276C18.2882 8.88519 17.4225 8.48803 16.4736 8.29489C16.126 8.22581 15.486 8.16982 15.3762 8.20185C15.2726 8.23151 15.126 8.34369 15.0607 8.44514C14.9917 8.55515 14.9761 8.80078 15.035 8.94286C15.1301 9.18038 15.307 9.26429 15.8025 9.30764C16.5663 9.37446 17.3541 9.64281 17.9494 10.0401C18.629 10.4924 19.1692 11.1111 19.5187 11.8381C19.8206 12.4628 20.0063 13.363 20.0012 14.1691C19.9995 14.4606 20.0445 14.6253 20.1617 14.7457C20.3387 14.9307 20.5967 14.9712 20.8244 14.8483C21.0767 14.7156 21.1357 14.4827 21.0913 13.7674Z" fill="white"/>
<path fill-rule="evenodd" clip-rule="evenodd" d="M23.4063 20.7602C23.3708 20.6564 23.288 20.4963 23.2287 20.4044C22.8557 19.8411 20.8515 18.2726 19.8509 17.7596C19.2795 17.4662 18.8562 17.3683 18.5424 17.4602C18.2049 17.5551 18.0273 17.7122 17.4618 18.4149C17.2339 18.6966 17 18.9605 16.9378 19.002C16.7839 19.1087 16.4819 19.1947 16.2688 19.1947C15.7744 19.1917 14.8774 18.8715 14.1876 18.4505C13.6517 18.1244 12.965 17.5403 12.438 16.9621C11.8163 16.2832 11.393 15.6842 11.0584 15.0082C10.6262 14.1395 10.5167 13.6088 10.6972 13.2204C10.7416 13.1225 10.8009 13.0188 10.8275 12.9861C10.8541 12.9565 11.1324 12.7282 11.4403 12.4791C12.0442 11.9989 12.1419 11.8892 12.2544 11.56C12.3965 11.142 12.358 10.715 12.139 10.2851C11.9702 9.95898 11.5291 9.24741 11.2094 8.78786C10.7861 8.18304 9.73214 6.89033 9.52192 6.71535C9.14299 6.40703 8.65753 6.35363 8.12164 6.56122C7.55624 6.78063 6.49638 7.63451 6.04342 8.23047C5.63488 8.77007 5.47803 9.15253 5.45432 9.65657C5.43361 10.0716 5.46913 10.2436 5.6882 10.7743C7.40229 14.9371 9.96007 18.2607 13.4741 20.8995C15.3096 22.2782 17.2131 23.3278 19.1877 24.0453C20.3393 24.4633 20.8397 24.4841 21.4288 24.1402C21.6774 23.9919 22.2932 23.3604 22.6366 22.9009C23.205 22.1359 23.4152 21.7831 23.4744 21.5014C23.5159 21.3087 23.4833 20.9737 23.4063 20.7602Z" fill="white"/>
<path fill-rule="evenodd" clip-rule="evenodd" d="M23.2217 14.1842C23.1838 13.1571 23.0109 12.3146 22.6503 11.3752C22.2942 10.4513 21.9339 9.84831 21.2535 9.0328C20.6101 8.26817 20.1104 7.83158 19.3179 7.3456C18.2122 6.66849 16.8666 6.22041 15.3586 6.03197C14.8443 5.96612 14.728 5.97082 14.5702 6.0761C14.2645 6.27553 14.2685 6.77295 14.5752 6.96939C14.6768 7.03187 14.7669 7.05464 15.1782 7.10848C15.8097 7.19349 16.2158 7.27361 16.6976 7.40506C18.587 7.92153 20.0399 8.97723 21.0112 10.5444C21.8241 11.8506 22.1615 13.157 22.1136 14.8254C22.0969 15.3894 22.109 15.4887 22.1953 15.6242C22.3604 15.8768 22.7958 15.9267 23.0192 15.7171C23.1582 15.5894 23.1844 15.4935 23.2118 15.0107C23.2249 14.7589 23.2277 14.3871 23.2217 14.1842Z" fill="white"/>
</svg>
