<svg width="30" height="30" viewBox="0 0 30 30" fill="none" xmlns="http://www.w3.org/2000/svg">
<path d="M15 30C23.2843 30 30 23.2843 30 15C30 6.71573 23.2843 0 15 0C6.71573 0 0 6.71573 0 15C0 23.2843 6.71573 30 15 30Z" fill="url(#paint0_linear_892_168)"/>
<path fill-rule="evenodd" clip-rule="evenodd" d="M12.25 21.875C11.7641 21.875 11.8466 21.6915 11.679 21.2288L10.25 16.5257L21.25 10" fill="#C8DAEA"/>
<path fill-rule="evenodd" clip-rule="evenodd" d="M12.25 21.8749C12.625 21.8749 12.7907 21.7034 13 21.4999L15 19.5552L12.5052 18.0508" fill="#A9C9DD"/>
<path fill-rule="evenodd" clip-rule="evenodd" d="M12.5034 18.0512L18.5484 22.5173C19.2382 22.8979 19.7361 22.7009 19.9079 21.8769L22.3686 10.2815C22.6205 9.27147 21.9836 8.81337 21.3236 9.11297L6.87489 14.6843C5.88862 15.0799 5.89437 15.6302 6.69511 15.8753L10.403 17.0326L18.9871 11.617C19.3924 11.3713 19.7643 11.5034 19.459 11.7743" fill="url(#paint1_linear_892_168)"/>
<defs>
<linearGradient id="paint0_linear_892_168" x1="20.001" y1="5.001" x2="12.501" y2="22.5" gradientUnits="userSpaceOnUse">
<stop stop-color="#37AEE2"/>
<stop offset="1" stop-color="#1E96C8"/>
</linearGradient>
<linearGradient id="paint1_linear_892_168" x1="16.1016" y1="14.9998" x2="17.7044" y2="20.1841" gradientUnits="userSpaceOnUse">
<stop stop-color="#EFF7FC"/>
<stop offset="1" stop-color="white"/>
</linearGradient>
</defs>
</svg>
