<svg width="30" height="30" viewBox="0 0 30 30" fill="none" xmlns="http://www.w3.org/2000/svg">
<path d="M15 0C23.2843 0 30 6.71573 30 15C30 23.2843 23.2843 30 15 30C6.71573 30 0 23.2843 0 15C0 6.71573 6.71573 0 15 0Z" fill="#35D16C"/>
<path fill-rule="evenodd" clip-rule="evenodd" d="M23.4063 20.7602C23.3708 20.6564 23.288 20.4963 23.2287 20.4044C22.8557 19.8411 20.8515 18.2726 19.8509 17.7596C19.2795 17.4662 18.8562 17.3683 18.5424 17.4602C18.2049 17.5551 18.0273 17.7122 17.4618 18.4149C17.2339 18.6966 17 18.9605 16.9378 19.002C16.7839 19.1087 16.4819 19.1947 16.2688 19.1947C15.7744 19.1917 14.8774 18.8715 14.1876 18.4505C13.6517 18.1244 12.965 17.5403 12.438 16.9621C11.8163 16.2832 11.393 15.6842 11.0584 15.0082C10.6262 14.1395 10.5167 13.6088 10.6972 13.2204C10.7416 13.1225 10.8009 13.0188 10.8275 12.9861C10.8541 12.9565 11.1324 12.7282 11.4403 12.4791C12.0442 11.9989 12.1419 11.8892 12.2544 11.56C12.3965 11.142 12.358 10.715 12.139 10.2851C11.9702 9.95898 11.5291 9.24741 11.2094 8.78786C10.7861 8.18304 9.73214 6.89033 9.52192 6.71535C9.14299 6.40703 8.65753 6.35363 8.12164 6.56122C7.55624 6.78063 6.49638 7.63451 6.04342 8.23047C5.63488 8.77007 5.47803 9.15253 5.45432 9.65657C5.43361 10.0716 5.46913 10.2436 5.6882 10.7743C7.40229 14.9371 9.96007 18.2607 13.4741 20.8995C15.3096 22.2782 17.2131 23.3278 19.1877 24.0453C20.3393 24.4633 20.8397 24.4841 21.4288 24.1402C21.6774 23.9919 22.2932 23.3604 22.6366 22.9009C23.205 22.1359 23.4152 21.7831 23.4744 21.5014C23.5159 21.3087 23.4833 20.9737 23.4063 20.7602Z" fill="white"/>
</svg>
