<svg width="30" height="30" viewBox="0 0 30 30" fill="none" xmlns="http://www.w3.org/2000/svg">
<path d="M15 0C23.2843 0 30 6.71573 30 15C30 23.2843 23.2843 30 15 30C6.71573 30 0 23.2843 0 15C0 6.71573 6.71573 0 15 0Z" fill="#7F4DA0"/>
<path d="M14.0003 21.1537C13.6157 21.1537 13.2311 20.846 13.2311 20.4614C13.2311 19.9998 13.5388 19.6921 13.9234 19.6152C17.1541 19.3844 19.6157 16.6921 19.6157 13.4614C19.6157 10.0767 16.8465 7.3075 13.4618 7.3075C10.0772 7.3075 7.30799 10.0767 7.30799 13.4614C7.30799 15.846 8.69261 17.9998 10.8465 18.9998C11.2311 19.1537 11.3849 19.6152 11.2311 19.9998C11.0772 20.3844 10.6157 20.5383 10.2311 20.3844C7.53876 19.1537 5.76953 16.4614 5.76953 13.4614C5.76953 9.23058 9.23107 5.76904 13.4618 5.76904C17.6926 5.76904 21.1541 9.23058 21.1541 13.4614C21.1541 17.4613 18.0003 20.846 14.0003 21.1537Z" fill="white"/>
<path d="M9.61458 24.2309C9.30689 24.2309 8.9992 24.0001 8.92228 23.6924C8.84535 23.3847 8.92228 23.0001 9.22997 22.8463C9.38381 22.6924 10.9223 21.4617 9.9992 20.154C9.76843 19.8463 9.84535 19.3078 10.153 19.0771C10.3838 18.8463 10.8454 18.9232 11.153 19.2309C11.9223 20.3078 11.9223 21.3847 11.5377 22.3078C12.3069 21.9232 12.9223 21.154 13.23 20.154C13.3838 19.7694 13.7684 19.5386 14.23 19.6155C14.6146 19.7694 14.8454 20.154 14.7684 20.5386C14.3069 21.9232 13.0761 24.2309 9.61458 24.2309Z" fill="white"/>
<path d="M18.8464 22.1538C18.7695 22.1538 18.7695 22.1538 18.8464 22.1538C17.308 22.0769 16.0772 21.4615 15.231 20.4615C14.9233 20.1538 15.0003 19.6154 15.308 19.3846C15.6156 19.0769 16.1541 19.1538 16.3849 19.4615C17.0003 20.1538 17.7695 20.5384 18.8464 20.6154C19.308 20.6154 19.6156 21 19.5387 21.4615C19.5387 21.8461 19.231 22.1538 18.8464 22.1538Z" fill="white"/>
<path d="M21.079 21.923C20.7713 21.923 20.5406 21.7692 20.3867 21.4615C20.2329 21.0769 20.3867 20.6153 20.7713 20.4615C22.0021 19.923 22.7713 18.6923 22.7713 17.3077C22.7713 15.7692 21.7713 14.3846 20.2329 14C19.8483 13.8461 19.6175 13.4615 19.6944 13.0769C19.7713 12.6923 20.2329 12.4615 20.6175 12.5384C22.7713 13.1538 24.2329 15.1538 24.2329 17.3846C24.2329 19.3077 23.079 21.0769 21.3867 21.923C21.2329 21.923 21.156 21.923 21.079 21.923Z" fill="white"/>
<path d="M21.6157 24.2308C19.9234 24.2308 18.6926 23.3077 18.2311 21.7692C18.0772 21.3846 18.308 20.9231 18.7695 20.8462C19.1541 20.6923 19.6157 20.9231 19.7695 21.3846C19.8464 21.6154 19.9234 21.8462 20.0772 22.0769C20.0772 21.6923 20.2311 21.2308 20.5388 20.7692C20.7695 20.4615 21.308 20.3846 21.6157 20.6154C21.9234 20.8461 22.0003 21.3846 21.7695 21.6923C21.308 22.3077 22.0772 22.8461 22.1541 22.9231C22.3849 23.1538 22.5388 23.4615 22.4618 23.7692C22.2311 24 21.9234 24.2308 21.6157 24.2308Z" fill="white"/>
<path d="M16.5403 12.6923H10.3864C9.92488 12.6923 9.61719 12.3846 9.61719 11.923C9.61719 11.4615 9.92488 11.1538 10.3864 11.1538H16.5403C17.0018 11.1538 17.3095 11.4615 17.3095 11.923C17.3095 12.3846 17.0018 12.6923 16.5403 12.6923Z" fill="white"/>
<path d="M15.0018 15.7692H10.3864C9.92488 15.7692 9.61719 15.4615 9.61719 14.9999C9.61719 14.5384 9.92488 14.2307 10.3864 14.2307H15.0018C15.4633 14.2307 15.771 14.5384 15.771 14.9999C15.771 15.4615 15.4633 15.7692 15.0018 15.7692Z" fill="white"/>
</svg>
