<svg width="54" height="54" viewBox="0 0 54 54" fill="none" xmlns="http://www.w3.org/2000/svg">
<path fill-rule="evenodd" clip-rule="evenodd" d="M2.09919 53.7258C1.56434 53.7258 1.03768 53.5214 0.637994 53.1339C0.0246593 52.5393 -0.167054 51.6324 0.153098 50.8406L4.91822 39.0531C1.69593 34.8644 0 29.9506 0 24.7642C0 18.1141 2.81798 11.8725 7.93505 7.18908C13.0003 2.55313 19.7224 0 26.8629 0C34.0034 0 40.7255 2.55313 45.7908 7.18908C50.9078 11.8725 53.7258 18.1141 53.7258 24.7642C53.7258 29.5332 52.2526 34.1638 49.4653 38.1553C48.8016 39.1057 47.4934 39.338 46.543 38.6744C45.5926 38.0108 45.3603 36.7025 46.0239 35.7521C48.3167 32.469 49.5285 28.6693 49.5285 24.7642C49.5285 13.4236 39.3608 4.19733 26.8629 4.19733C14.365 4.19733 4.19733 13.4236 4.19733 24.7642C4.19733 29.3585 5.83187 33.7046 8.92415 37.3324C9.4314 37.9275 9.56582 38.7554 9.27263 39.4804L5.9813 47.6221L15.5664 43.3968C16.0977 43.1627 16.7024 43.1589 17.2365 43.3868C20.2607 44.677 23.4994 45.3312 26.8629 45.3312C30.7341 45.3312 34.5544 44.4301 37.9109 42.7255C38.9445 42.2008 40.2076 42.613 40.7325 43.6462C41.2572 44.6797 40.8451 45.9429 39.8117 46.4678C35.8691 48.4701 31.3915 49.5285 26.8629 49.5285C23.2448 49.5285 19.7448 48.8788 16.4456 47.5963L2.94527 53.5475C2.67307 53.6675 2.38492 53.7258 2.09919 53.7258ZM28.9616 34.1033V22.7705C28.9616 21.6114 28.022 20.6718 26.8629 20.6718C25.7038 20.6718 24.7642 21.6114 24.7642 22.7705V34.1033C24.7642 35.2624 25.7038 36.202 26.8629 36.202C28.022 36.202 28.9616 35.2624 28.9616 34.1033ZM24.7642 15.5301C24.7642 14.371 25.7038 13.4315 26.8629 13.4315C28.022 13.4315 28.9616 14.371 28.9616 15.5301C28.9616 16.6892 28.022 17.6288 26.8629 17.6288C25.7038 17.6288 24.7642 16.6892 24.7642 15.5301Z" fill="#C29952"/>
</svg>
