<svg width="63" height="55" viewBox="0 0 63 55" fill="none" xmlns="http://www.w3.org/2000/svg">
<path fill-rule="evenodd" clip-rule="evenodd" d="M62.5203 30.9782L62.5207 30.979C62.7721 31.6072 62.465 32.3195 61.8345 32.5701L54.077 35.6485V53.0367C54.077 53.713 53.5267 54.2612 52.8479 54.2612H1.22902C0.550295 54.2612 0 53.713 0 53.0367V21.1992C0.00430158 20.7515 0.256251 20.3428 0.655069 20.1363C0.781504 19.9655 0.951109 19.8311 1.14668 19.7469L49.1019 0.721565L49.1033 0.720952C49.7339 0.470997 50.4487 0.777739 50.6996 1.40607L62.5203 30.9782ZM2.45894 51.8122H51.6198V22.4237H2.45894V51.8122ZM20.5075 19.9808L41.0862 11.8108C42.9228 13.7342 45.4677 14.8274 48.1322 14.8378L50.1846 19.9808H20.5075ZM54.0761 21.1992V33.0183L59.7824 30.7505L48.8699 3.44983L7.21591 19.9747H14.8457C14.9732 19.6752 15.2164 19.4396 15.5204 19.3208L40.6441 9.35324C40.7011 9.33901 40.759 9.32829 40.8174 9.3214C41.338 9.00762 42.0112 9.12471 42.3942 9.5957C43.9334 11.5453 46.3587 12.5858 48.838 12.3607C49.4423 12.3114 49.9905 12.7138 50.1223 13.3035C50.1605 13.3518 50.1942 13.4035 50.2231 13.4578L52.8274 19.9747H52.847C53.5258 19.9747 54.0761 20.523 54.0761 21.1992Z" fill="#C29952"/>
<path fill-rule="evenodd" clip-rule="evenodd" d="M10.7531 48.4827C10.0449 46.1062 8.17773 44.2481 5.79158 43.5454C5.20826 43.3671 4.8477 42.7857 4.94848 42.1862C4.93265 42.1305 4.92113 42.0735 4.91406 42.016V32.2198C4.92098 32.1586 4.9325 32.0981 4.94848 32.0386C4.85277 31.4428 5.21256 30.8679 5.79158 30.6916C8.17896 29.988 10.0463 28.1279 10.7531 25.7494C10.9306 25.1728 11.5073 24.8145 12.1051 24.9094C12.165 24.8923 12.2263 24.88 12.2882 24.8727H41.7847C41.8433 24.8797 41.9012 24.8912 41.958 24.907C42.5592 24.8067 43.1419 25.1661 43.3198 25.747C44.0241 28.1265 45.8912 29.988 48.2789 30.6916C48.8583 30.8675 49.2183 31.4427 49.122 32.0386C49.1393 32.0978 49.1516 32.1584 49.1588 32.2198V42.016C49.1515 42.0772 49.1396 42.1378 49.1232 42.1972C49.2189 42.7929 48.8591 43.3678 48.2801 43.5442C45.8924 44.248 44.0249 46.1086 43.3185 48.4875L43.317 48.4943C43.1675 49.1061 42.5487 49.4812 41.9347 49.3325C41.8855 49.3462 41.8354 49.3565 41.7847 49.3631H12.2882C12.2314 49.3559 12.175 49.3444 12.1198 49.3288C12.0576 49.3435 11.9943 49.353 11.9305 49.357C11.3873 49.3568 10.9085 49.0014 10.7531 48.4827ZM12.7884 27.3217C11.7972 29.7805 9.84118 31.7294 7.37331 32.7169V41.5188C9.84042 42.5074 11.7961 44.4559 12.7884 46.914H41.2869C42.2792 44.4559 44.2349 42.5074 46.702 41.5188V32.7169C44.2338 31.7294 42.2774 29.7805 41.2857 27.3217H12.7884Z" fill="#C29952"/>
<path fill-rule="evenodd" clip-rule="evenodd" d="M34.4123 37.1179C34.4123 41.1756 31.1109 44.465 27.0382 44.465C22.9672 44.461 19.6681 41.1739 19.6641 37.1179C19.6641 33.0601 22.9655 29.7708 27.0382 29.7708C31.1109 29.7708 34.4123 33.0601 34.4123 37.1179ZM31.9556 37.1179C31.9556 34.4127 29.7546 32.2198 27.0395 32.2198C24.3244 32.2198 22.1234 34.4127 22.1234 37.1179C22.1234 39.823 24.3244 42.0159 27.0395 42.0159C29.7546 42.0159 31.9556 39.823 31.9556 37.1179Z" fill="#C29952"/>
<path fill-rule="evenodd" clip-rule="evenodd" d="M15.3628 37.118C15.3628 38.1324 14.5374 38.9548 13.5193 38.9548C12.5012 38.9548 11.6758 38.1325 11.6758 37.118C11.6758 36.1037 12.5012 35.2812 13.5193 35.2812C14.5374 35.2812 15.3628 36.1037 15.3628 37.118ZM14.1323 37.118C14.1323 36.7799 13.8572 36.5058 13.5178 36.5058C13.1784 36.5058 12.9033 36.7799 12.9033 37.118C12.9033 37.4561 13.1784 37.7303 13.5178 37.7303C13.8572 37.7303 14.1323 37.4561 14.1323 37.118Z" fill="#C29952"/>
<path fill-rule="evenodd" clip-rule="evenodd" d="M42.398 37.118C42.398 38.1324 41.5726 38.9548 40.5545 38.9548C39.5364 38.9548 38.7109 38.1325 38.7109 37.118C38.7109 36.1037 39.5364 35.2812 40.5545 35.2812C41.5726 35.2812 42.398 36.1037 42.398 37.118ZM41.1677 37.1181C41.1677 36.7799 40.8925 36.5058 40.5532 36.5058C40.2138 36.5058 39.9387 36.7799 39.9387 37.1181C39.9387 37.4562 40.2138 37.7303 40.5532 37.7303C40.8925 37.7303 41.1677 37.4562 41.1677 37.1181Z" fill="#C29952"/>
</svg>
