<svg width="54" height="55" viewBox="0 0 54 55" fill="none" xmlns="http://www.w3.org/2000/svg">
<path d="M30.9922 16.4891C30.4141 16.4891 29.9453 16.9593 29.9453 17.5385C29.9453 18.1172 30.4141 18.5874 30.9922 18.5874C31.5702 18.5874 32.0391 18.1172 32.0391 17.5385C32.0391 16.9593 31.5702 16.4891 30.9922 16.4891Z" fill="#C29952"/>
<path d="M24.643 36.9836C25.0517 36.5733 25.0517 35.9093 24.643 35.4989C24.2339 35.0899 23.5712 35.0899 23.1617 35.4989C22.7534 35.9093 22.7534 36.5733 23.1617 36.9836C23.5712 37.3927 24.2339 37.3927 24.643 36.9836Z" fill="#C29952"/>
<path fill-rule="evenodd" clip-rule="evenodd" d="M12.0597 53.9593C12.4655 54.3692 13.1262 54.3737 13.5373 53.9679L18.6134 48.9573C19.4757 48.0933 19.738 46.814 19.3587 45.702L20.4506 44.6469C21.0385 44.0779 21.8125 43.7644 22.6307 43.7644H36.5494C39.0187 43.7644 41.3526 42.8142 43.1219 41.089C43.126 41.085 43.1279 41.0836 43.1296 41.0823L43.13 41.082C43.1459 41.0699 43.159 41.0542 44.865 39.0099C46.1815 37.4324 48.5059 34.647 52.6175 29.7234C54.1078 27.9568 53.8848 25.3039 52.12 23.809C50.3662 22.3281 47.739 22.5408 46.2446 24.2771L40.0664 30.6395C39.2862 29.6775 38.0966 29.0778 36.8112 29.0778H25.136C23.4747 28.3814 21.7119 28.0289 19.893 28.0289C14.853 28.0289 10.4499 30.3604 8.08651 34.7364C7.09118 34.5475 6.04143 34.8492 5.28624 35.6058L0.305493 40.6111C-0.101148 41.0197 -0.101967 41.6809 0.303857 42.0904L12.0597 53.9593ZM19.8942 30.1267C21.4979 30.1267 23.0483 30.4501 24.5035 31.0879C24.636 31.1461 24.7788 31.176 24.9232 31.176H36.8128C37.948 31.176 38.9069 32.1036 38.9069 33.2739C38.9069 34.431 37.9677 35.3721 36.8128 35.3721H28.2704C27.6924 35.3721 27.2236 35.8419 27.2236 36.4211C27.2236 37.0006 27.6924 37.47 28.2704 37.47H36.8128C39.1221 37.47 41.0007 35.5877 41.0007 33.2739C41.0007 33.0894 40.9876 32.9066 40.9639 32.7254C42.9135 30.7175 44.3168 29.2725 45.324 28.2354C47.4044 26.0932 47.7949 25.6911 47.8191 25.6621C48.5653 24.7796 49.89 24.6677 50.7712 25.4121C51.6532 26.1593 51.7648 27.4857 51.0166 28.3732L41.6258 39.6215C40.2545 40.9406 38.4541 41.6665 36.551 41.6665H22.6323C21.2683 41.6665 19.9772 42.1891 18.9979 43.1372L18.1081 43.9976L9.9057 35.7796C11.8227 32.1762 15.4199 30.1267 19.8942 30.1267ZM8.0627 36.9408C7.64174 36.6801 7.11155 36.7424 6.76627 37.0884L2.5219 41.3533L12.8094 51.7397L17.1369 47.4682C17.4956 47.1083 17.5394 46.5209 17.233 46.1073C17.1778 46.0331 8.22265 37.0384 8.0627 36.9408Z" fill="#C29952"/>
<path fill-rule="evenodd" clip-rule="evenodd" d="M41.4643 22.7835H16.3364C14.6042 22.7835 13.1953 21.3718 13.1953 19.6363V3.691C13.1953 1.9555 14.6042 0.543823 16.3364 0.543823H41.4643C43.1964 0.543823 44.6053 1.9555 44.6053 3.691V19.6363C44.6053 21.3718 43.1964 22.7835 41.4643 22.7835ZM15.2909 8.93603H42.5125V6.83819H15.2909V8.93603ZM41.4657 20.6857H16.3377C15.7605 20.6857 15.2909 20.2147 15.2909 19.6364V11.0343H42.5125V19.6364C42.5125 20.2147 42.0429 20.6857 41.4657 20.6857ZM41.4657 2.64206H16.3377C15.7605 2.64206 15.2909 3.11262 15.2909 3.69099V4.73991H42.5125V3.69099C42.5125 3.11262 42.0429 2.64206 41.4657 2.64206Z" fill="#C29952"/>
<path d="M39.3676 16.4891H35.1797C34.6016 16.4891 34.1328 16.9589 34.1328 17.5385C34.1328 18.1177 34.6016 18.5874 35.1797 18.5874H39.3676C39.9461 18.5874 40.4149 18.1177 40.4149 17.5385C40.4149 16.9589 39.9461 16.4891 39.3676 16.4891Z" fill="#C29952"/>
</svg>
