<svg width="68" height="55" viewBox="0 0 68 55" fill="none" xmlns="http://www.w3.org/2000/svg">
<path fill-rule="evenodd" clip-rule="evenodd" d="M66.7133 6.34359C65.8332 5.30586 64.6008 4.672 63.2428 4.55886L15.4127 0.574946C14.0545 0.461804 12.7341 0.883009 11.6937 1.76075C10.6575 2.63505 10.023 3.85817 9.90598 5.20622L8.94369 14.212H5.1013C2.28845 14.212 0 16.4949 0 19.3008V49.1678C0 51.9737 2.28845 54.2566 5.1013 54.2566H53.0981C55.9111 54.2566 58.1995 51.9737 58.1995 49.1678V44.3228L59.9027 44.4647C60.0464 44.4766 60.1892 44.4826 60.3309 44.4826C62.9533 44.4826 65.1888 42.47 65.4108 39.817L67.9023 10.0536C68.0156 8.69892 67.5933 7.38145 66.7133 6.34359ZM5.10318 16.8585H53.1C54.4499 16.8585 55.5483 17.9541 55.5483 19.3007V22.0222H2.65501V19.3007C2.65501 17.9541 3.75327 16.8585 5.10318 16.8585ZM55.5483 24.6688H2.65501V30.1591H55.5483V24.6688ZM53.1 51.61H5.10318C3.75327 51.61 2.65501 50.5144 2.65501 49.1678V32.8057H55.5483V49.1678C55.5483 50.5144 54.4499 51.61 53.1 51.61ZM62.7677 39.5967L65.2592 9.83324C65.3135 9.18311 65.1108 8.55097 64.6886 8.05288C64.2664 7.55479 63.6748 7.25057 63.0231 7.19631L15.1928 3.2124C13.8471 3.09992 12.6617 4.10086 12.5494 5.44281C12.5486 5.453 12.5476 5.46292 12.5466 5.47298L11.6128 14.212H53.0989C55.9119 14.212 58.2004 16.4948 58.2004 19.3008V41.667L60.1243 41.8272C61.4693 41.9397 62.6554 40.9386 62.7677 39.5967Z" fill="#C29952"/>
<path fill-rule="evenodd" clip-rule="evenodd" d="M37.2289 36.74H49.996C50.7287 36.74 51.3226 37.3324 51.3226 38.0633V46.3721C51.3226 47.103 50.7287 47.6954 49.996 47.6954H37.2289C36.4962 47.6954 35.9023 47.103 35.9023 46.3721V38.0633C35.9023 37.3324 36.4962 36.74 37.2289 36.74ZM38.5562 45.0489H48.6701V39.3866H38.5562V45.0489Z" fill="#C29952"/>
</svg>
