<svg width="16" height="18" viewBox="0 0 16 18" fill="none" xmlns="http://www.w3.org/2000/svg">
<path d="M13 12.442C12.367 12.442 11.796 12.688 11.363 13.084L5.425 9.62095C5.471 9.43295 5.5 9.23695 5.5 9.03695C5.5 8.83695 5.471 8.64195 5.425 8.45395L11.3 5.02495C11.746 5.44195 12.342 5.69995 13 5.69995C14.379 5.69995 15.5 4.57895 15.5 3.19995C15.5 1.82095 14.379 0.699951 13 0.699951C11.621 0.699951 10.5 1.82095 10.5 3.19995C10.5 3.39995 10.529 3.59595 10.575 3.78295L4.7 7.21195C4.254 6.79595 3.658 6.53695 3 6.53695C1.621 6.53695 0.5 7.65795 0.5 9.03695C0.5 10.416 1.621 11.537 3 11.537C3.658 11.537 4.254 11.279 4.7 10.862L10.638 14.325C10.596 14.5 10.571 14.683 10.571 14.871C10.571 16.213 11.658 17.3 13 17.3C14.342 17.3 15.429 16.212 15.429 14.871C15.429 13.53 14.342 12.442 13 12.442Z" fill="#C29952"/>
</svg>
