<svg width="18" height="18" viewBox="0 0 18 18" fill="none" xmlns="http://www.w3.org/2000/svg">
<path d="M16.0901 17.3038L10.3751 11.5878C7.83274 13.3953 4.3295 12.9531 2.31594 10.5707C0.302375 8.18831 0.450225 4.66039 2.65607 2.4548C4.86133 0.248244 8.38959 0.0997534 10.7725 2.11321C13.1553 4.12667 13.5977 7.63024 11.7901 10.1728L17.5051 15.8888L16.0911 17.3028L16.0901 17.3038ZM6.89807 2.69678C5.00177 2.69636 3.36576 4.02747 2.98054 5.88423C2.59532 7.74099 3.56678 9.61307 5.30674 10.367C7.04671 11.121 9.07697 10.5496 10.1683 8.99885C11.2597 7.44807 11.1121 5.34411 9.81507 3.9608L10.4201 4.5608L9.73807 3.8808L9.72607 3.8688C8.97785 3.11597 7.95946 2.69392 6.89807 2.69678Z" fill="#2E3A59"/>
</svg>
