<svg width="46" height="46" viewBox="0 0 46 46" fill="none" xmlns="http://www.w3.org/2000/svg">
<circle opacity="0.2" cx="23" cy="23" r="23" fill="#F0E8DE"/>
<circle cx="23" cy="23" r="16" fill="#C5A17C"/>
<path d="M22.6 13C17.298 13 13 17.6219 13 23.3235C13 29.0251 17.298 33.647 22.6 33.647C27.901 33.647 32.2 29.0251 32.2 23.3224C32.2 17.6219 27.901 13 22.6 13ZM22.6 31.4952C18.403 31.4952 15 27.8368 15 23.3224C15 18.808 18.402 15.1507 22.6 15.1507C26.797 15.1507 30.201 18.8091 30.201 23.3235C30.201 27.8379 26.797 31.4952 22.6 31.4952ZM20.101 23.0546C20.929 23.0546 21.6 22.2126 21.6 21.1728C21.6 20.1329 20.928 19.2909 20.1 19.2909C19.272 19.2909 18.6 20.1329 18.6 21.1728C18.6 22.2126 19.272 23.0546 20.101 23.0546ZM25.1 23.0546C25.929 23.0546 26.6 22.2126 26.6 21.1728C26.6 20.1329 25.928 19.2909 25.1 19.2909C24.272 19.2909 23.6 20.134 23.6 21.1728C23.6 22.2116 24.272 23.0546 25.1 23.0546ZM26.941 24.7602C26.578 24.5602 26.126 24.7139 25.933 25.1043C25.899 25.1753 25.064 26.8173 22.601 26.8173C20.15 26.8173 19.31 25.1903 19.268 25.1054C19.08 24.7129 18.636 24.5526 18.264 24.7516C17.894 24.9516 17.744 25.4355 17.929 25.8345C17.979 25.9409 19.177 28.4304 22.601 28.4304C26.026 28.4304 27.222 25.9398 27.271 25.8334C27.455 25.4387 27.307 24.9623 26.941 24.7602Z" fill="white"/>
</svg>
