<svg width="46" height="46" viewBox="0 0 46 46" fill="none" xmlns="http://www.w3.org/2000/svg">
<circle opacity="0.2" cx="23" cy="23" r="23" fill="#F0E8DE"/>
<circle cx="23" cy="23" r="16" fill="#C5A17C"/>
<path d="M30.1251 19.6366L28.0791 13.577C27.9281 13.1296 27.4841 12.8919 27.0901 13.0479L13.4921 18.3849C13.0981 18.5398 12.8991 19.0269 13.0511 19.4743L15.2071 25.863V22.4401C15.2071 20.8937 16.3551 19.6366 17.7671 19.6366H21.3601L25.6451 16.4019L28.1241 19.6366H30.1251ZM32.2381 21.6046H17.7671C17.3471 21.6046 17.0051 21.9637 17.0051 22.4401V32.5701C17.0061 33.0475 17.3481 33.4336 17.7671 33.4336H32.2381C32.6581 33.4336 33.0001 33.0475 33.0001 32.5701V22.4401C33.0001 21.9637 32.6581 21.6046 32.2381 21.6046ZM31.0001 31.2829H19.0001V29.1321L20.9841 24.8113L23.7521 28.5063L26.3501 25.6436L29.6881 24.3478L31.0001 28.0568V31.2829Z" fill="white"/>
</svg>
