<svg width="46" height="46" viewBox="0 0 46 46" fill="none" xmlns="http://www.w3.org/2000/svg">
<circle opacity="0.2" cx="23" cy="23" r="23" fill="#F0E8DE"/>
<circle cx="23" cy="23" r="16" fill="#C5A17C"/>
<path d="M31 15H15C13.899 15 13 15.9678 13 17.1507V27.9044C13 29.0873 13.899 30.0552 15 30.0552H31C32.1 30.0552 33 29.0873 33 27.9044V17.1507C33 15.9678 32.1 15 31 15ZM31 27.9044H15V21.4522H31V27.9044ZM31 18.2261H15V17.1507H31V18.2261ZM17 23.7105V24.3557H17.6V23.7105H17ZM20.6 24.9999V25.6462H21.8V24.9999H22.4V24.3546H23V23.7094H21.8V24.3546H21.199V24.9999H20.6ZM23 25.6462V24.9999H22.399V25.6462H23ZM20 25.6462V24.9999H18.8V25.6462H20ZM20.6 24.3546H21.2V23.7094H20V24.9988H20.6V24.3546ZM18.199 24.9999H18.8V24.3546H19.4V23.7094H18.2V24.3546H17.6V24.9999H17V25.6462H18.199V24.9999Z" fill="white"/>
</svg>
