<svg width="46" height="46" viewBox="0 0 46 46" fill="none" xmlns="http://www.w3.org/2000/svg">
<circle opacity="0.2" cx="23" cy="23" r="23" fill="#F0E8DE"/>
<circle cx="23" cy="23" r="16" fill="#C5A17C"/>
<path d="M16.1331 19.8904C17.0661 19.1654 17.8401 19.6654 18.8731 20.8614C18.9891 20.9964 19.1451 20.8384 19.2341 20.7614C19.3221 20.6834 20.6851 19.4564 20.7521 19.4004C20.8181 19.3414 20.8981 19.2314 20.7931 19.1084C20.6861 18.9854 20.2991 18.4834 20.0501 18.1574C18.2421 15.7924 24.9961 14.1884 23.9591 14.1634C23.4311 14.1494 21.3131 14.1244 20.9961 14.1594C19.7131 14.2944 18.1021 15.4934 17.2911 16.0524C16.2301 16.7784 15.8341 17.2044 15.7691 17.2634C15.4691 17.5254 15.7211 18.1304 15.1771 18.6074C14.6021 19.1104 14.2431 18.7294 13.9101 19.0214C13.7451 19.1674 13.2831 19.5134 13.1511 19.6284C13.0181 19.7454 12.9941 19.9424 13.1301 20.0994C13.1301 20.0994 14.3941 21.4954 14.5001 21.6194C14.6051 21.7414 14.8911 21.8474 15.0671 21.6904C15.2441 21.5344 15.6991 21.1374 15.7751 21.0674C15.8531 21.0014 15.7251 20.2064 16.1331 19.8904ZM21.8411 20.4074C21.7211 20.2684 21.5721 20.2644 21.4441 20.3784L20.0101 21.6304C19.8971 21.7304 19.8811 21.9134 19.9831 22.0304L28.2771 31.4694C28.4711 31.6924 28.8071 31.7154 29.0281 31.5224L29.9981 30.7094C30.2201 30.5144 30.2431 30.1764 30.0501 29.9514L21.8411 20.4074ZM32.9001 16.3904C32.8261 15.8964 32.5701 15.9994 32.4371 16.2084C32.3041 16.4194 31.7161 17.3104 31.4741 17.7144C31.2341 18.1144 30.6421 18.9054 29.5401 18.1244C28.3921 17.3134 28.7911 16.7474 28.9911 16.3664C29.1921 15.9834 29.8091 14.9094 29.8981 14.7764C29.9871 14.6414 29.8831 14.2494 29.5271 14.4134C29.1701 14.5774 27.0041 15.4384 26.7041 16.6734C26.3971 17.9294 26.9611 19.0524 25.8541 20.1674L24.5111 21.5674L25.8601 23.1334L27.5141 21.5634C27.9081 21.1674 28.7501 20.7824 29.5121 20.9564C31.1451 21.3254 32.0361 20.7124 32.5731 19.6984C33.0551 18.7924 32.9751 16.8844 32.9001 16.3904ZM15.7371 30.0534C15.5291 30.2624 15.5291 30.6024 15.7371 30.8114L16.6881 31.7414C16.8961 31.9504 17.2261 31.8624 17.4341 31.6534L22.3411 26.8294L20.8381 25.1154L15.7371 30.0534Z" fill="white"/>
</svg>
