<svg width="46" height="46" viewBox="0 0 46 46" fill="none" xmlns="http://www.w3.org/2000/svg">
<circle opacity="0.2" cx="23" cy="23" r="23" fill="#F0E8DE"/>
<circle cx="23" cy="23" r="16" fill="#C5A17C"/>
<path d="M24.8195 33.3364H21.1795C20.7096 33.3364 20.303 33.0039 20.2024 32.5372L19.7954 30.6215C19.2525 30.3796 18.7377 30.0771 18.2604 29.7196L16.4234 30.3144C15.9754 30.4597 15.4884 30.268 15.2534 29.8538L13.4294 26.6498C13.197 26.2355 13.2771 25.7128 13.6224 25.39L15.0474 24.0681C14.9826 23.4693 14.9826 22.8651 15.0474 22.2663L13.6224 20.9475C13.2766 20.6245 13.1965 20.1012 13.4294 19.6866L15.2494 16.4806C15.4844 16.0664 15.9714 15.8747 16.4194 16.02L18.2564 16.6148C18.5005 16.4309 18.7546 16.2612 19.0174 16.1064C19.2698 15.9617 19.5295 15.8307 19.7954 15.7139L20.2034 13.8002C20.3035 13.3335 20.7096 13.0005 21.1795 13H24.8195C25.2893 13.0005 25.6954 13.3335 25.7955 13.8002L26.2075 15.7149C26.4883 15.8405 26.7617 15.9824 27.0265 16.1399C27.2737 16.2851 27.5128 16.4443 27.7425 16.6168L29.5805 16.022C30.0282 15.8773 30.5146 16.0689 30.7495 16.4826L32.5695 19.6887C32.8019 20.103 32.7218 20.6257 32.3765 20.9485L30.9515 22.2704C31.0163 22.8692 31.0163 23.4734 30.9515 24.0722L32.3765 25.394C32.7218 25.7169 32.8019 26.2395 32.5695 26.6539L30.7495 29.8599C30.5146 30.2736 30.0282 30.4653 29.5805 30.3205L27.7425 29.7257C27.5099 29.8999 27.2682 30.0611 27.0185 30.2087C26.7563 30.3631 26.4859 30.5027 26.2085 30.6266L25.7955 32.5372C25.695 33.0036 25.289 33.336 24.8195 33.3364ZM22.9955 19.1009C20.7863 19.1009 18.9954 20.9219 18.9954 23.1682C18.9954 25.4145 20.7863 27.2355 22.9955 27.2355C25.2046 27.2355 26.9955 25.4145 26.9955 23.1682C26.9955 20.9219 25.2046 19.1009 22.9955 19.1009Z" fill="white"/>
</svg>
