<svg width="46" height="46" viewBox="0 0 46 46" fill="none" xmlns="http://www.w3.org/2000/svg">
<circle opacity="0.2" cx="23" cy="23" r="23" fill="#F0E8DE"/>
<circle cx="23" cy="23" r="16" fill="#C5A17C"/>
<path fill-rule="evenodd" clip-rule="evenodd" d="M15.539 33H19L20.406 29.302L17.44 28.298L15.539 33ZM25.594 29.302L27 33H30.461L28.56 28.298L25.594 29.302ZM31 15H24.5L24 13H22L21.5 15H15C14.447 15 14 15.447 14 16V27C14 27.552 14.447 28 15 28H31C31.553 28 32 27.552 32 27V16C32 15.448 31.553 15 31 15Z" fill="white"/>
</svg>
