<svg width="30" height="30" viewBox="0 0 30 30" fill="none" xmlns="http://www.w3.org/2000/svg">
<circle r="15" transform="matrix(1 0 0 -1 15 15)" fill="#7F4DA0"/>
<path d="M18.997 13.0991C18.9241 12.5064 18.7419 12.041 18.4184 11.6288C17.9983 11.098 17.4615 10.7801 16.6667 10.5916C16.1487 10.4659 15.9394 10.4803 15.7521 10.6514C15.5776 10.8118 15.5435 11.1332 15.6769 11.3413C15.7706 11.4923 15.8788 11.5465 16.1797 11.6055C16.5804 11.6792 16.8573 11.7749 17.1092 11.919C17.6439 12.2277 17.8928 12.7108 17.9195 13.4928C17.932 13.8601 17.9637 13.973 18.092 14.1032C18.3297 14.3413 18.7527 14.295 18.9322 14.0101C18.9981 13.9027 19.0081 13.8559 19.015 13.6066C19.0196 13.4522 19.013 13.2224 18.997 13.0991Z" fill="white"/>
<path d="M21.0913 13.7673C20.9857 11.9515 20.2754 10.4905 19.0043 9.46264C18.2882 8.88507 17.4225 8.48791 16.4736 8.29477C16.126 8.22569 15.486 8.1697 15.3762 8.20173C15.2726 8.23138 15.126 8.34357 15.0607 8.44501C14.9917 8.55503 14.9761 8.80066 15.035 8.94274C15.1301 9.18026 15.307 9.26417 15.8025 9.30751C16.5663 9.37434 17.3541 9.64269 17.9494 10.04C18.629 10.4923 19.1692 11.111 19.5187 11.838C19.8206 12.4626 20.0063 13.3628 20.0012 14.169C19.9995 14.4605 20.0445 14.6252 20.1617 14.7455C20.3387 14.9306 20.5967 14.9711 20.8244 14.8482C21.0767 14.7155 21.1357 14.4825 21.0913 13.7673Z" fill="white"/>
<path d="M23.4063 20.7602C23.3708 20.6564 23.288 20.4963 23.2287 20.4044C22.8557 19.8411 20.8515 18.2726 19.8509 17.7597C19.2795 17.4662 18.8562 17.3683 18.5424 17.4602C18.2049 17.5551 18.0273 17.7122 17.4618 18.4149C17.2339 18.6966 17 18.9605 16.9378 19.002C16.7839 19.1087 16.4819 19.1947 16.2688 19.1947C15.7744 19.1917 14.8774 18.8715 14.1876 18.4505C13.6517 18.1244 12.965 17.5403 12.438 16.9621C11.8163 16.2832 11.393 15.6842 11.0584 15.0082C10.6262 14.1395 10.5167 13.6088 10.6972 13.2204C10.7416 13.1225 10.8009 13.0188 10.8275 12.9861C10.8541 12.9565 11.1324 12.7282 11.4403 12.4792C12.0442 11.9989 12.1419 11.8892 12.2544 11.56C12.3965 11.142 12.358 10.715 12.139 10.2851C11.9702 9.95898 11.5291 9.24741 11.2094 8.78786C10.7861 8.18304 9.73214 6.89034 9.52192 6.71535C9.14299 6.40703 8.65753 6.35363 8.12164 6.56122C7.55624 6.78063 6.49638 7.63451 6.04342 8.23047C5.63488 8.77007 5.47803 9.15253 5.45432 9.65657C5.43361 10.0716 5.46913 10.2436 5.6882 10.7743C7.40229 14.9371 9.96007 18.2607 13.4741 20.8995C15.3096 22.2782 17.2131 23.3278 19.1877 24.0453C20.3393 24.4633 20.8397 24.4841 21.4288 24.1402C21.6774 23.9919 22.2932 23.3604 22.6366 22.9009C23.205 22.1359 23.4152 21.7831 23.4744 21.5014C23.5159 21.3087 23.4833 20.9737 23.4063 20.7602Z" fill="white"/>
<path d="M23.2217 14.1843C23.1838 13.1572 23.0108 12.3146 22.6502 11.3753C22.2942 10.4513 21.9339 9.84837 21.2534 9.03286C20.61 8.26822 20.1103 7.83163 19.3178 7.34564C18.2121 6.66852 16.8665 6.22042 15.3585 6.03198C14.8442 5.96611 14.7279 5.97082 14.5701 6.07609C14.2644 6.27552 14.2685 6.77294 14.5752 6.96938C14.6767 7.03187 14.7668 7.05463 15.1781 7.10848C15.8096 7.1935 16.2157 7.27362 16.6975 7.40508C18.5869 7.92157 20.0398 8.97728 21.0112 10.5444C21.8241 11.8507 22.1615 13.157 22.1136 14.8254C22.0969 15.3895 22.109 15.4888 22.1953 15.6243C22.3604 15.8769 22.7958 15.9268 23.0192 15.7172C23.1582 15.5895 23.1844 15.4936 23.2118 15.0108C23.2249 14.759 23.2277 14.3872 23.2217 14.1843Z" fill="white"/>
</svg>
