<svg width="30" height="30" viewBox="0 0 30 30" fill="none" xmlns="http://www.w3.org/2000/svg">
<circle r="15" transform="matrix(1 0 0 -1 15 15)" fill="#25D366"/>
<path d="M22.1071 19.9819C22.0767 19.8932 22.0059 19.7564 21.9553 19.6778C21.6365 19.1964 19.9239 17.8561 19.0687 17.4177C18.5805 17.1669 18.2187 17.0833 17.9506 17.1618C17.6622 17.243 17.5104 17.3772 17.0271 17.9777C16.8324 18.2184 16.6325 18.4439 16.5794 18.4794C16.4478 18.5706 16.1898 18.6441 16.0076 18.6441C15.5851 18.6415 14.8186 18.3679 14.2291 18.0081C13.7712 17.7294 13.1843 17.2303 12.734 16.7362C12.2027 16.156 11.841 15.6442 11.5551 15.0665C11.1857 14.3242 11.0921 13.8706 11.2464 13.5387C11.2844 13.4551 11.335 13.3664 11.3577 13.3385C11.3805 13.3132 11.6183 13.1181 11.8814 12.9053C12.3975 12.4948 12.481 12.4011 12.5771 12.1198C12.6986 11.7626 12.6657 11.3977 12.4785 11.0304C12.3343 10.7516 11.9573 10.1436 11.6841 9.75085C11.3223 9.234 10.4217 8.12931 10.2421 7.97978C9.91825 7.7163 9.5034 7.67067 9.04545 7.84806C8.56229 8.03556 7.65658 8.76525 7.2695 9.27453C6.92038 9.73565 6.78634 10.0625 6.76608 10.4932C6.74838 10.8479 6.77873 10.9949 6.96594 11.4484C8.43073 15.0057 10.6165 17.846 13.6195 20.101C15.188 21.2791 16.8146 22.176 18.5021 22.7892C19.4862 23.1464 19.9137 23.1642 20.4171 22.8703C20.6296 22.7436 21.1559 22.2039 21.4493 21.8112C21.9351 21.1575 22.1147 20.856 22.1653 20.6153C22.2007 20.4506 22.1729 20.1643 22.1071 19.9819Z" fill="white"/>
</svg>
