<svg width="30" height="30" viewBox="0 0 30 30" fill="none" xmlns="http://www.w3.org/2000/svg">
<circle cx="15" cy="15" r="15" fill="url(#paint0_linear_893_1716)"/>
<path d="M12.25 21.875C11.7641 21.875 11.8466 21.6915 11.679 21.2288L10.25 16.5257L21.25 10" fill="#C8DAEA"/>
<path d="M12.25 21.875C12.625 21.875 12.7907 21.7035 13 21.5L15 19.5553L12.5053 18.0509" fill="#A9C9DD"/>
<path d="M12.5034 18.0513L18.5484 22.5174C19.2382 22.898 19.7361 22.701 19.9079 21.877L22.3686 10.2816C22.6205 9.27159 21.9835 8.81349 21.3236 9.11309L6.87489 14.6845C5.88862 15.0801 5.89437 15.6303 6.69511 15.8755L10.403 17.0328L18.9871 11.6171C19.3923 11.3714 19.7643 11.5035 19.459 11.7744" fill="url(#paint1_linear_893_1716)"/>
<defs>
<linearGradient id="paint0_linear_893_1716" x1="11.2515" y1="1.251" x2="3.7515" y2="18.75" gradientUnits="userSpaceOnUse">
<stop stop-color="#37AEE2"/>
<stop offset="1" stop-color="#1E96C8"/>
</linearGradient>
<linearGradient id="paint1_linear_893_1716" x1="13.1207" y1="15.9214" x2="14.7234" y2="21.1058" gradientUnits="userSpaceOnUse">
<stop stop-color="#EFF7FC"/>
<stop offset="1" stop-color="white"/>
</linearGradient>
</defs>
</svg>
