<svg width="21" height="20" viewBox="0 0 21 20" fill="none" xmlns="http://www.w3.org/2000/svg">
<path d="M10.5 20C16.0228 20 20.5 15.5228 20.5 10C20.5 4.47715 16.0228 0 10.5 0C4.97715 0 0.5 4.47715 0.5 10C0.5 15.5228 4.97715 20 10.5 20Z" fill="url(#paint0_linear_892_72)"/>
<path fill-rule="evenodd" clip-rule="evenodd" d="M8.67318 14.5834C8.34921 14.5834 8.40426 14.4611 8.29253 14.1526L7.33984 11.0172L14.6732 6.66675" fill="#C8DAEA"/>
<path fill-rule="evenodd" clip-rule="evenodd" d="M8.67188 14.5834C8.92187 14.5834 9.03233 14.469 9.17187 14.3334L10.5052 13.0369L8.84204 12.0339" fill="#A9C9DD"/>
<path fill-rule="evenodd" clip-rule="evenodd" d="M8.84213 12.0342L12.8721 15.0116C13.332 15.2653 13.6639 15.1339 13.7785 14.5846L15.4189 6.85437C15.5868 6.18102 15.1622 5.87562 14.7223 6.07535L5.08977 9.7896C4.43226 10.0533 4.43609 10.4202 4.96992 10.5836L7.44183 11.3551L13.1646 7.74471C13.4347 7.58089 13.6827 7.66896 13.4792 7.84958" fill="url(#paint1_linear_892_72)"/>
<defs>
<linearGradient id="paint0_linear_892_72" x1="13.834" y1="3.334" x2="8.834" y2="15" gradientUnits="userSpaceOnUse">
<stop stop-color="#37AEE2"/>
<stop offset="1" stop-color="#1E96C8"/>
</linearGradient>
<linearGradient id="paint1_linear_892_72" x1="11.2409" y1="9.99989" x2="12.3094" y2="13.4561" gradientUnits="userSpaceOnUse">
<stop stop-color="#EFF7FC"/>
<stop offset="1" stop-color="white"/>
</linearGradient>
</defs>
</svg>
