<svg width="21" height="20" viewBox="0 0 21 20" fill="none" xmlns="http://www.w3.org/2000/svg">
<path d="M10.5 0C16.0228 0 20.5 4.47715 20.5 10C20.5 15.5228 16.0228 20 10.5 20C4.97715 20 0.5 15.5228 0.5 10C0.5 4.47715 4.97715 0 10.5 0Z" fill="#7F4DA0"/>
<path fill-rule="evenodd" clip-rule="evenodd" d="M13.1595 8.7327C13.1108 8.33757 12.9894 8.02731 12.7737 7.7525C12.4937 7.39864 12.1358 7.18674 11.6059 7.06104C11.2606 6.97726 11.1211 6.98687 10.9962 7.10095C10.8799 7.20784 10.8571 7.4221 10.946 7.56085C11.0086 7.66156 11.0807 7.69764 11.2813 7.73702C11.5484 7.78616 11.733 7.84995 11.9009 7.94597C12.2574 8.15177 12.4234 8.47383 12.4411 8.99523C12.4494 9.24004 12.4706 9.3153 12.5561 9.40213C12.7146 9.56085 12.9966 9.52998 13.1163 9.34004C13.1602 9.26845 13.1669 9.23729 13.1715 9.07106C13.1745 8.96814 13.1701 8.81496 13.1595 8.7327Z" fill="white"/>
<path fill-rule="evenodd" clip-rule="evenodd" d="M14.5543 9.17829C14.4839 7.96772 14.0105 6.99376 13.163 6.3085C12.6856 5.92346 12.1085 5.65869 11.4759 5.52993C11.2441 5.48387 10.8175 5.44655 10.7443 5.4679C10.6752 5.48767 10.5775 5.56246 10.534 5.63009C10.4879 5.70343 10.4776 5.86719 10.5168 5.96191C10.5802 6.12025 10.6982 6.17619 11.0285 6.20509C11.5377 6.24964 12.0629 6.42854 12.4597 6.69339C12.9128 6.99495 13.2729 7.4074 13.5059 7.89208C13.7072 8.30851 13.831 8.90864 13.8276 9.44605C13.8265 9.64041 13.8565 9.75018 13.9346 9.83043C14.0526 9.95383 14.2246 9.98081 14.3764 9.89885C14.5446 9.81039 14.584 9.6551 14.5543 9.17829Z" fill="white"/>
<path fill-rule="evenodd" clip-rule="evenodd" d="M16.1042 13.8401C16.0806 13.7709 16.0253 13.6642 15.9858 13.6029C15.7371 13.2274 14.401 12.1817 13.7339 11.8398C13.353 11.6441 13.0708 11.5789 12.8616 11.6401C12.6366 11.7034 12.5182 11.8081 12.1412 12.2766C11.9893 12.4644 11.8333 12.6403 11.7919 12.668C11.6893 12.7391 11.4879 12.7965 11.3458 12.7965C11.0163 12.7945 10.4182 12.581 9.95839 12.3003C9.60116 12.0829 9.14331 11.6935 8.79199 11.3081C8.37751 10.8554 8.09531 10.4562 7.87227 10.0055C7.58414 9.42635 7.51111 9.07253 7.63149 8.81358C7.6611 8.74836 7.70058 8.6792 7.71832 8.65743C7.73609 8.63769 7.92162 8.48547 8.12685 8.31943C8.52949 7.99924 8.59461 7.9261 8.66961 7.7067C8.76434 7.42798 8.7387 7.14335 8.59265 6.85676C8.48014 6.63932 8.18608 6.16494 7.97293 5.85857C7.69071 5.45536 6.98809 4.59356 6.84795 4.4769C6.59533 4.27135 6.27168 4.23575 5.91442 4.37415C5.5375 4.52042 4.83092 5.08967 4.52895 5.48698C4.25659 5.84671 4.15202 6.10168 4.13621 6.43771C4.12241 6.71442 4.14608 6.82907 4.29214 7.1829C5.43486 9.95804 7.14004 12.1738 9.48275 13.933C10.7064 14.8521 11.9754 15.5519 13.2918 16.0302C14.0596 16.3089 14.3931 16.3227 14.7859 16.0935C14.9516 15.9946 15.3622 15.5736 15.5911 15.2672C15.97 14.7573 16.1102 14.522 16.1496 14.3343C16.1773 14.2058 16.1556 13.9824 16.1042 13.8401Z" fill="white"/>
<path fill-rule="evenodd" clip-rule="evenodd" d="M15.9811 9.45625C15.9558 8.77148 15.8405 8.20981 15.6001 7.58359C15.3628 6.96759 15.1226 6.56563 14.6689 6.02195C14.24 5.51219 13.9069 5.22113 13.3785 4.89714C12.6414 4.44572 11.7443 4.14699 10.739 4.02136C10.3961 3.97745 10.3186 3.98058 10.2134 4.05077C10.0096 4.18372 10.0123 4.51533 10.2168 4.6463C10.2845 4.68795 10.3445 4.70313 10.6188 4.73903C11.0397 4.79571 11.3104 4.84912 11.6317 4.93676C12.8913 5.28109 13.8599 5.9849 14.5075 7.02968C15.0494 7.90051 15.2743 8.7714 15.2424 9.88368C15.2313 10.2597 15.2394 10.3259 15.2968 10.4162C15.4069 10.5846 15.6972 10.6179 15.8461 10.4782C15.9388 10.393 15.9563 10.3291 15.9745 10.0073C15.9833 9.83937 15.9851 9.59153 15.9811 9.45625Z" fill="white"/>
</svg>
