<svg width="46" height="46" viewBox="0 0 46 46" fill="none" xmlns="http://www.w3.org/2000/svg">
<circle cx="23" cy="23" r="23" fill="#F0E8DE"/>
<circle cx="23" cy="23" r="16" fill="white"/>
<path d="M30 31.0003H16C15.4477 31.0003 15 30.5526 15 30.0003V20.3573C15.0155 20.1123 15.1196 19.8812 15.293 19.7073L22.293 12.7073C22.4806 12.5196 22.7351 12.4141 23.0005 12.4141C23.2659 12.4141 23.5204 12.5196 23.708 12.7073L30.708 19.7073C30.8957 19.8946 31.0009 20.1492 31 20.4143V30.0003C31 30.5526 30.5523 31.0003 30 31.0003ZM23 14.8283L17 20.8283V29.0003H29V20.8283L23 14.8283ZM23 26.9993C22.792 26.8143 22.557 26.6213 22.308 26.4173L22.261 26.3793C21.104 25.4353 19.661 24.2603 19.661 22.7993C19.6612 22.3153 19.8563 21.8517 20.2023 21.5132C20.5483 21.1747 21.0161 20.9899 21.5 21.0003C22.0722 20.9988 22.6179 21.2415 23 21.6673C23.3822 21.2416 23.9278 20.9989 24.5 21.0003C24.9834 20.9909 25.4503 21.1764 25.7955 21.515C26.1407 21.8536 26.3351 22.3168 26.335 22.8003C26.335 24.2663 24.883 25.4493 23.717 26.4003L23.66 26.4473C23.423 26.6413 23.199 26.8243 22.999 27.0013L23 26.9993Z" fill="#2E3A59"/>
</svg>
