<svg width="60" height="60" viewBox="0 0 60 60" fill="none" xmlns="http://www.w3.org/2000/svg">
<circle cx="30" cy="30" r="30" fill="#E7E7E7"/>
<g opacity="0.5">
<path fill-rule="evenodd" clip-rule="evenodd" d="M35.6 25H38C39.1 25 40 25.9 40 27V36C40 37.1 39.1 38 38 38H22C20.9 38 20 37.1 20 36V27C20 25.9 20.9 25 22 25H24.4C24.73 25 25.085 24.744 25.189 24.43L25.811 22.568C25.914 22.256 26.27 22 26.6 22H33.4C33.731 22 34.085 22.256 34.19 22.569L34.811 24.43C34.914 24.744 35.27 25 35.6 25ZM27 31C27 29.344 28.343 28 30 28C31.656 28 33 29.344 33 31C33 32.656 31.656 34 30 34C28.343 34 27 32.656 27 31ZM30 36C27.238 36 25 33.762 25 31C25 28.238 27.238 26 30 26C32.761 26 35 28.238 35 31C35 33.762 32.761 36 30 36ZM36.8 27.499C36.8 27.886 37.113 28.2 37.5 28.2C37.887 28.2 38.2 27.886 38.2 27.499C38.2 27.113 37.887 26.799 37.5 26.799C37.113 26.799 36.8 27.114 36.8 27.499Z" fill="black"/>
</g>
</svg>
